  0
SECTION
  2
HEADER
  9
$ACADVER
  1
AC1024
  9
$ACADMAINTVER
 70
6
  9
$DWGCODEPAGE
  3
ANSI_1252
  9
$LASTSAVEDBY
  1
ezdxf
  9
$INSBASE
 10
0.0
 20
0.0
 30
0.0
  9
$EXTMIN
 10
1e+20
 20
1e+20
 30
1e+20
  9
$EXTMAX
 10
-1e+20
 20
-1e+20
 30
-1e+20
  9
$LIMMIN
 10
0.0
 20
0.0
  9
$LIMMAX
 10
420.0
 20
297.0
  9
$ORTHOMODE
 70
0
  9
$REGENMODE
 70
1
  9
$FILLMODE
 70
1
  9
$QTEXTMODE
 70
0
  9
$MIRRTEXT
 70
1
  9
$LTSCALE
 40
1.0
  9
$ATTMODE
 70
1
  9
$TEXTSIZE
 40
2.5
  9
$TRACEWID
 40
1.0
  9
$TEXTSTYLE
  7
OpenSans
  9
$CLAYER
  8
0
  9
$CELTYPE
  6
ByLayer
  9
$CECOLOR
 62
256
  9
$CELTSCALE
 40
1.0
  9
$DISPSILH
 70
0
  9
$DIMSCALE
 40
1.0
  9
$DIMASZ
 40
0.175
  9
$DIMEXO
 40
0.125
  9
$DIMDLI
 40
3.75
  9
$DIMRND
 40
0.0
  9
$DIMDLE
 40
0.0
  9
$DIMEXE
 40
0.375
  9
$DIMTP
 40
0.0
  9
$DIMTM
 40
0.0
  9
$DIMTXT
 40
0.25
  9
$DIMCEN
 40
2.5
  9
$DIMTSZ
 40
0.0
  9
$DIMTOL
 70
0
  9
$DIMLIM
 70
0
  9
$DIMTIH
 70
0
  9
$DIMTOH
 70
0
  9
$DIMSE1
 70
0
  9
$DIMSE2
 70
0
  9
$DIMTAD
 70
1
  9
$DIMZIN
 70
12
  9
$DIMBLK
  1
ARCHTICK
  9
$DIMASO
 70
1
  9
$DIMSHO
 70
1
  9
$DIMPOST
  1

  9
$DIMAPOST
  1

  9
$DIMALT
 70
0
  9
$DIMALTD
 70
3
  9
$DIMALTF
 40
0.03937007874
  9
$DIMLFAC
 40
100.0
  9
$DIMTOFL
 70
1
  9
$DIMTVP
 40
0.0
  9
$DIMTIX
 70
0
  9
$DIMSOXD
 70
0
  9
$DIMSAH
 70
0
  9
$DIMBLK1
  1

  9
$DIMBLK2
  1

  9
$DIMSTYLE
  2
EZDXF
  9
$DIMCLRD
 70
0
  9
$DIMCLRE
 70
0
  9
$DIMCLRT
 70
0
  9
$DIMTFAC
 40
0.5
  9
$DIMGAP
 40
0.1
  9
$DIMJUST
 70
0
  9
$DIMSD1
 70
0
  9
$DIMSD2
 70
0
  9
$DIMTOLJ
 70
0
  9
$DIMTZIN
 70
8
  9
$DIMALTZ
 70
0
  9
$DIMALTTZ
 70
0
  9
$DIMUPT
 70
1
  9
$DIMDEC
 70
2
  9
$DIMTDEC
 70
2
  9
$DIMALTU
 70
2
  9
$DIMALTTD
 70
3
  9
$DIMTXSTY
  7
OpenSansCondensed-Light
  9
$DIMAUNIT
 70
0
  9
$DIMADEC
 70
2
  9
$DIMALTRND
 40
0.0
  9
$DIMAZIN
 70
3
  9
$DIMDSEP
 70
46
  9
$DIMATFIT
 70
3
  9
$DIMFRAC
 70
0
  9
$DIMLDRBLK
  1

  9
$DIMLUNIT
 70
2
  9
$DIMLWD
 70
-2
  9
$DIMLWE
 70
-2
  9
$DIMTMOVE
 70
2
  9
$DIMFXL
 40
1.0
  9
$DIMFXLON
 70
0
  9
$DIMJOGANG
 40
0.785398163397
  9
$DIMTFILL
 70
0
  9
$DIMTFILLCLR
 70
0
  9
$DIMARCSYM
 70
0
  9
$DIMLTYPE
  6

  9
$DIMLTEX1
  6

  9
$DIMLTEX2
  6

  9
$DIMTXTDIRECTION
 70
0
  9
$LUNITS
 70
2
  9
$LUPREC
 70
4
  9
$SKETCHINC
 40
1.0
  9
$FILLETRAD
 40
10.0
  9
$AUNITS
 70
0
  9
$AUPREC
 70
2
  9
$MENU
  1
.
  9
$ELEVATION
 40
0.0
  9
$PELEVATION
 40
0.0
  9
$THICKNESS
 40
0.0
  9
$LIMCHECK
 70
0
  9
$CHAMFERA
 40
0.0
  9
$CHAMFERB
 40
0.0
  9
$CHAMFERC
 40
0.0
  9
$CHAMFERD
 40
0.0
  9
$SKPOLY
 70
0
  9
$TDCREATE
 40
2461202.0540393516
  9
$TDUCREATE
 40
2458532.153996898
  9
$TDUPDATE
 40
2461202.0540625
  9
$TDUUPDATE
 40
2458532.1544311
  9
$TDINDWG
 40
0.0
  9
$TDUSRTIMER
 40
0.0
  9
$USRTIMER
 70
1
  9
$ANGBASE
 50
0.0
  9
$ANGDIR
 70
0
  9
$PDMODE
 70
0
  9
$PDSIZE
 40
0.0
  9
$PLINEWID
 40
0.0
  9
$SPLFRAME
 70
0
  9
$SPLINETYPE
 70
6
  9
$SPLINESEGS
 70
8
  9
$HANDSEED
  5
2BF
  9
$SURFTAB1
 70
6
  9
$SURFTAB2
 70
6
  9
$SURFTYPE
 70
6
  9
$SURFU
 70
6
  9
$SURFV
 70
6
  9
$UCSBASE
  2

  9
$UCSNAME
  2

  9
$UCSORG
 10
0.0
 20
0.0
 30
0.0
  9
$UCSXDIR
 10
1.0
 20
0.0
 30
0.0
  9
$UCSYDIR
 10
0.0
 20
1.0
 30
0.0
  9
$UCSORTHOREF
  2

  9
$UCSORTHOVIEW
 70
0
  9
$UCSORGTOP
 10
0.0
 20
0.0
 30
0.0
  9
$UCSORGBOTTOM
 10
0.0
 20
0.0
 30
0.0
  9
$UCSORGLEFT
 10
0.0
 20
0.0
 30
0.0
  9
$UCSORGRIGHT
 10
0.0
 20
0.0
 30
0.0
  9
$UCSORGFRONT
 10
0.0
 20
0.0
 30
0.0
  9
$UCSORGBACK
 10
0.0
 20
0.0
 30
0.0
  9
$PUCSBASE
  2

  9
$PUCSNAME
  2

  9
$PUCSORG
 10
0.0
 20
0.0
 30
0.0
  9
$PUCSXDIR
 10
1.0
 20
0.0
 30
0.0
  9
$PUCSYDIR
 10
0.0
 20
1.0
 30
0.0
  9
$PUCSORTHOREF
  2

  9
$PUCSORTHOVIEW
 70
0
  9
$PUCSORGTOP
 10
0.0
 20
0.0
 30
0.0
  9
$PUCSORGBOTTOM
 10
0.0
 20
0.0
 30
0.0
  9
$PUCSORGLEFT
 10
0.0
 20
0.0
 30
0.0
  9
$PUCSORGRIGHT
 10
0.0
 20
0.0
 30
0.0
  9
$PUCSORGFRONT
 10
0.0
 20
0.0
 30
0.0
  9
$PUCSORGBACK
 10
0.0
 20
0.0
 30
0.0
  9
$USERI1
 70
0
  9
$USERI2
 70
0
  9
$USERI3
 70
0
  9
$USERI4
 70
0
  9
$USERI5
 70
0
  9
$USERR1
 40
0.0
  9
$USERR2
 40
0.0
  9
$USERR3
 40
0.0
  9
$USERR4
 40
0.0
  9
$USERR5
 40
0.0
  9
$WORLDVIEW
 70
1
  9
$SHADEDGE
 70
3
  9
$SHADEDIF
 70
70
  9
$TILEMODE
 70
1
  9
$MAXACTVP
 70
64
  9
$PINSBASE
 10
0.0
 20
0.0
 30
0.0
  9
$PLIMCHECK
 70
0
  9
$PEXTMIN
 10
1e+20
 20
1e+20
 30
1e+20
  9
$PEXTMAX
 10
-1e+20
 20
-1e+20
 30
-1e+20
  9
$PLIMMIN
 10
0.0
 20
0.0
  9
$PLIMMAX
 10
420.0
 20
297.0
  9
$UNITMODE
 70
0
  9
$VISRETAIN
 70
1
  9
$PLINEGEN
 70
0
  9
$PSLTSCALE
 70
1
  9
$TREEDEPTH
 70
3020
  9
$CMLSTYLE
  2
Standard
  9
$CMLJUST
 70
0
  9
$CMLSCALE
 40
20.0
  9
$PROXYGRAPHICS
 70
1
  9
$MEASUREMENT
 70
1
  9
$CELWEIGHT
370
-1
  9
$ENDCAPS
280
0
  9
$JOINSTYLE
280
0
  9
$LWDISPLAY
290
0
  9
$INSUNITS
 70
4
  9
$HYPERLINKBASE
  1

  9
$STYLESHEET
  1

  9
$XEDIT
290
1
  9
$CEPSNTYPE
380
0
  9
$PSTYLEMODE
290
1
  9
$FINGERPRINTGUID
  2
{373A357C-0DD4-4A53-A639-326015FF0AB5}
  9
$VERSIONGUID
  2
{5B16DD23-090C-4AC0-8C55-2DFFFF35BC3C}
  9
$EXTNAMES
290
1
  9
$PSVPSCALE
 40
0.0
  9
$OLESTARTUP
290
0
  9
$SORTENTS
280
127
  9
$INDEXCTL
280
0
  9
$HIDETEXT
280
1
  9
$XCLIPFRAME
280
1
  9
$HALOGAP
280
0
  9
$OBSCOLOR
 70
257
  9
$OBSLTYPE
280
0
  9
$INTERSECTIONDISPLAY
280
0
  9
$INTERSECTIONCOLOR
 70
257
  9
$DIMASSOC
280
2
  9
$PROJECTNAME
  1

  9
$CAMERADISPLAY
290
0
  9
$LENSLENGTH
 40
50.0
  9
$CAMERAHEIGHT
 40
0.0
  9
$STEPSPERSEC
 40
24.0
  9
$STEPSIZE
 40
100.0
  9
$3DDWFPREC
 40
2.0
  9
$PSOLWIDTH
 40
0.005
  9
$PSOLHEIGHT
 40
0.08
  9
$LOFTANG1
 40
1.570796326795
  9
$LOFTANG2
 40
1.570796326795
  9
$LOFTMAG1
 40
0.0
  9
$LOFTMAG2
 40
0.0
  9
$LOFTPARAM
 70
7
  9
$LOFTNORMALS
280
1
  9
$LATITUDE
 40
37.795
  9
$LONGITUDE
 40
-122.394
  9
$NORTHDIRECTION
 40
0.0
  9
$TIMEZONE
 70
-8000
  9
$LIGHTGLYPHDISPLAY
280
1
  9
$TILEMODELIGHTSYNCH
280
1
  9
$CMATERIAL
347
20
  9
$SOLIDHIST
280
0
  9
$SHOWHIST
280
1
  9
$DWFFRAME
280
2
  9
$DGNFRAME
280
2
  9
$REALWORLDSCALE
290
1
  9
$INTERFERECOLOR
 62
256
  9
$CSHADOW
280
0
  9
$SHADOWPLANELOCATION
 40
0.0
  0
ENDSEC
  0
SECTION
  2
CLASSES
  0
CLASS
  1
ACDBDICTIONARYWDFLT
  2
AcDbDictionaryWithDefault
  3
ObjectDBX Classes
 90
0
 91
0
280
0
281
0
  0
CLASS
  1
SUN
  2
AcDbSun
  3
SCENEOE
 90
1153
 91
0
280
0
281
0
  0
CLASS
  1
VISUALSTYLE
  2
AcDbVisualStyle
  3
ObjectDBX Classes
 90
4095
 91
0
280
0
281
0
  0
CLASS
  1
MATERIAL
  2
AcDbMaterial
  3
ObjectDBX Classes
 90
1153
 91
0
280
0
281
0
  0
CLASS
  1
SCALE
  2
AcDbScale
  3
ObjectDBX Classes
 90
1153
 91
0
280
0
281
0
  0
CLASS
  1
TABLESTYLE
  2
AcDbTableStyle
  3
ObjectDBX Classes
 90
4095
 91
0
280
0
281
0
  0
CLASS
  1
MLEADERSTYLE
  2
AcDbMLeaderStyle
  3
ACDB_MLEADERSTYLE_CLASS
 90
4095
 91
0
280
0
281
0
  0
CLASS
  1
DICTIONARYVAR
  2
AcDbDictionaryVar
  3
ObjectDBX Classes
 90
0
 91
0
280
0
281
0
  0
CLASS
  1
CELLSTYLEMAP
  2
AcDbCellStyleMap
  3
ObjectDBX Classes
 90
1152
 91
0
280
0
281
0
  0
CLASS
  1
MENTALRAYRENDERSETTINGS
  2
AcDbMentalRayRenderSettings
  3
SCENEOE
 90
1024
 91
0
280
0
281
0
  0
CLASS
  1
ACDBDETAILVIEWSTYLE
  2
AcDbDetailViewStyle
  3
ObjectDBX Classes
 90
1025
 91
0
280
0
281
0
  0
CLASS
  1
ACDBSECTIONVIEWSTYLE
  2
AcDbSectionViewStyle
  3
ObjectDBX Classes
 90
1025
 91
0
280
0
281
0
  0
CLASS
  1
RASTERVARIABLES
  2
AcDbRasterVariables
  3
ISM
 90
0
 91
0
280
0
281
0
  0
CLASS
  1
IMAGE
  2
AcDbRasterImage
  3
ISM
 90
2175
 91
0
280
0
281
1
  0
CLASS
  1
IMAGEDEF
  2
AcDbRasterImageDef
  3
ISM
 90
0
 91
0
280
0
281
0
  0
CLASS
  1
IMAGEDEF_REACTOR
  2
AcDbRasterImageDefReactor
  3
ISM
 90
1
 91
0
280
0
281
0
  0
CLASS
  1
ACDBPLACEHOLDER
  2
AcDbPlaceHolder
  3
ObjectDBX Classes
 90
0
 91
0
280
0
281
0
  0
CLASS
  1
LAYOUT
  2
AcDbLayout
  3
ObjectDBX Classes
 90
0
 91
0
280
0
281
0
  0
ENDSEC
  0
SECTION
  2
TABLES
  0
TABLE
  2
VPORT
  5
8
330
0
100
AcDbSymbolTable
 70
1
  0
VPORT
  5
23
330
8
100
AcDbSymbolTableRecord
100
AcDbViewportTableRecord
  2
*Active
 70
0
 10
0.0
 20
0.0
 11
1.0
 21
1.0
 12
0.0
 22
0.0
 13
0.0
 23
0.0
 14
0.5
 24
0.5
 15
0.5
 25
0.5
 16
0.0
 26
0.0
 36
1.0
 17
0.0
 27
0.0
 37
0.0
 40
1000.0
 41
1.34
 42
50.0
 43
0.0
 44
0.0
 50
0.0
 51
0.0
 71
0
 72
1000
 73
1
 74
3
 75
0
 76
0
 77
0
 78
0
281
0
 65
0
146
0.0
  0
ENDTAB
  0
TABLE
  2
LTYPE
  5
2
330
0
100
AcDbSymbolTable
 70
21
  0
LTYPE
  5
24
330
2
100
AcDbSymbolTableRecord
100
AcDbLinetypeTableRecord
  2
ByBlock
 70
0
  3

 72
65
 73
0
 40
0.0
  0
LTYPE
  5
25
330
2
100
AcDbSymbolTableRecord
100
AcDbLinetypeTableRecord
  2
ByLayer
 70
0
  3

 72
65
 73
0
 40
0.0
  0
LTYPE
  5
26
330
2
100
AcDbSymbolTableRecord
100
AcDbLinetypeTableRecord
  2
Continuous
 70
0
  3

 72
65
 73
0
 40
0.0
  0
LTYPE
  5
2F
330
2
100
AcDbSymbolTableRecord
100
AcDbLinetypeTableRecord
  2
CENTER
 70
0
  3
Center ____ _ ____ _ ____ _ ____ _ ____ _ ____
 72
65
 73
4
 40
5.08
 49
3.175
 74
0
 49
-0.635
 74
0
 49
0.635
 74
0
 49
-0.635
 74
0
  0
LTYPE
  5
30
330
2
100
AcDbSymbolTableRecord
100
AcDbLinetypeTableRecord
  2
CENTERX2
 70
0
  3
Center (2x) ________  __  ________  __  ________
 72
65
 73
4
 40
8.89
 49
6.35
 74
0
 49
-0.635
 74
0
 49
1.27
 74
0
 49
-0.635
 74
0
  0
LTYPE
  5
31
330
2
100
AcDbSymbolTableRecord
100
AcDbLinetypeTableRecord
  2
CENTER2
 70
0
  3
Center (.5x) ____ _ ____ _ ____ _ ____ _ ____
 72
65
 73
4
 40
2.54
 49
1.587
 74
0
 49
-0.318
 74
0
 49
0.318
 74
0
 49
-0.318
 74
0
  0
LTYPE
  5
32
330
2
100
AcDbSymbolTableRecord
100
AcDbLinetypeTableRecord
  2
DASHED
 70
0
  3
Dashed __ __ __ __ __ __ __ __ __ __ __ __ __ _
 72
65
 73
2
 40
1.524
 49
1.27
 74
0
 49
-0.254
 74
0
  0
LTYPE
  5
33
330
2
100
AcDbSymbolTableRecord
100
AcDbLinetypeTableRecord
  2
DASHEDX2
 70
0
  3
Dashed (2x) ____  ____  ____  ____  ____  ____
 72
65
 73
2
 40
3.048
 49
2.54
 74
0
 49
-0.508
 74
0
  0
LTYPE
  5
34
330
2
100
AcDbSymbolTableRecord
100
AcDbLinetypeTableRecord
  2
DASHED2
 70
0
  3
Dashed (.5x) _ _ _ _ _ _ _ _ _ _ _ _ _ _
 72
65
 73
2
 40
0.762
 49
0.635
 74
0
 49
-0.127
 74
0
  0
LTYPE
  5
35
330
2
100
AcDbSymbolTableRecord
100
AcDbLinetypeTableRecord
  2
PHANTOM
 70
0
  3
Phantom ______  __  __  ______  __  __  ______
 72
65
 73
6
 40
6.35
 49
3.175
 74
0
 49
-0.635
 74
0
 49
0.635
 74
0
 49
-0.635
 74
0
 49
0.635
 74
0
 49
-0.635
 74
0
  0
LTYPE
  5
36
330
2
100
AcDbSymbolTableRecord
100
AcDbLinetypeTableRecord
  2
PHANTOMX2
 70
0
  3
Phantom (2x)____________    ____    ____    ____________
 72
65
 73
6
 40
10.795
 49
6.35
 74
0
 49
-0.635
 74
0
 49
1.27
 74
0
 49
-0.635
 74
0
 49
1.27
 74
0
 49
-0.635
 74
0
  0
LTYPE
  5
37
330
2
100
AcDbSymbolTableRecord
100
AcDbLinetypeTableRecord
  2
PHANTOM2
 70
0
  3
Phantom (.5x) ___ _ _ ___ _ _ ___ _ _ ___ _ _ ___
 72
65
 73
6
 40
3.175
 49
1.587
 74
0
 49
-0.318
 74
0
 49
0.318
 74
0
 49
-0.318
 74
0
 49
0.318
 74
0
 49
-0.318
 74
0
  0
LTYPE
  5
38
330
2
100
AcDbSymbolTableRecord
100
AcDbLinetypeTableRecord
  2
DASHDOT
 70
0
  3
Dash dot __ . __ . __ . __ . __ . __ . __ . __
 72
65
 73
4
 40
3.556
 49
2.54
 74
0
 49
-0.508
 74
0
 49
0.0
 74
0
 49
-0.508
 74
0
  0
LTYPE
  5
39
330
2
100
AcDbSymbolTableRecord
100
AcDbLinetypeTableRecord
  2
DASHDOTX2
 70
0
  3
Dash dot (2x) ____  .  ____  .  ____  .  ____
 72
65
 73
4
 40
6.096
 49
5.08
 74
0
 49
-0.508
 74
0
 49
0.0
 74
0
 49
-0.508
 74
0
  0
LTYPE
  5
3A
330
2
100
AcDbSymbolTableRecord
100
AcDbLinetypeTableRecord
  2
DASHDOT2
 70
0
  3
Dash dot (.5x) _ . _ . _ . _ . _ . _ . _ . _
 72
65
 73
4
 40
1.778
 49
1.27
 74
0
 49
-0.254
 74
0
 49
0.0
 74
0
 49
-0.254
 74
0
  0
LTYPE
  5
3B
330
2
100
AcDbSymbolTableRecord
100
AcDbLinetypeTableRecord
  2
DOT
 70
0
  3
Dot .  .  .  .  .  .  .  .  .  .  .  .  .  .  .  .
 72
65
 73
2
 40
0.508
 49
0.0
 74
0
 49
-0.508
 74
0
  0
LTYPE
  5
3C
330
2
100
AcDbSymbolTableRecord
100
AcDbLinetypeTableRecord
  2
DOTX2
 70
0
  3
Dot (2x) .    .    .    .    .    .    .    . 
 72
65
 73
2
 40
1.016
 49
0.0
 74
0
 49
-1.016
 74
0
  0
LTYPE
  5
3D
330
2
100
AcDbSymbolTableRecord
100
AcDbLinetypeTableRecord
  2
DOT2
 70
0
  3
Dot (.5) . . . . . . . . . . . . . . . . . . . 
 72
65
 73
2
 40
0.254
 49
0.0
 74
0
 49
-0.254
 74
0
  0
LTYPE
  5
3E
330
2
100
AcDbSymbolTableRecord
100
AcDbLinetypeTableRecord
  2
DIVIDE
 70
0
  3
Divide __ . . __ . . __ . . __ . . __ . . __
 72
65
 73
6
 40
4.064
 49
2.54
 74
0
 49
-0.508
 74
0
 49
0.0
 74
0
 49
-0.508
 74
0
 49
0.0
 74
0
 49
-0.508
 74
0
  0
LTYPE
  5
3F
330
2
100
AcDbSymbolTableRecord
100
AcDbLinetypeTableRecord
  2
DIVIDEX2
 70
0
  3
Divide (2x) ____  . .  ____  . .  ____  . .  ____
 72
65
 73
6
 40
6.604
 49
5.08
 74
0
 49
-0.508
 74
0
 49
0.0
 74
0
 49
-0.508
 74
0
 49
0.0
 74
0
 49
-0.508
 74
0
  0
LTYPE
  5
40
330
2
100
AcDbSymbolTableRecord
100
AcDbLinetypeTableRecord
  2
DIVIDE2
 70
0
  3
Divide(.5x) _ . _ . _ . _ . _ . _ . _ . _
 72
65
 73
6
 40
2.032
 49
1.27
 74
0
 49
-0.254
 74
0
 49
0.0
 74
0
 49
-0.254
 74
0
 49
0.0
 74
0
 49
-0.254
 74
0
  0
ENDTAB
  0
TABLE
  2
LAYER
  5
1
330
0
100
AcDbSymbolTable
 70
13
  0
LAYER
  5
27
330
1
100
AcDbSymbolTableRecord
100
AcDbLayerTableRecord
  2
0
 70
0
 62
7
  6
Continuous
370
-3
390
13
347
21
  0
LAYER
  5
28
330
1
100
AcDbSymbolTableRecord
100
AcDbLayerTableRecord
  2
Defpoints
 70
0
 62
7
  6
Continuous
290
0
370
-3
390
13
347
21
  0
LAYER
  5
8A
330
1
100
AcDbSymbolTableRecord
100
AcDbLayerTableRecord
  2
FOND-ARCHI
 70
0
 62
8
  6
Continuous
370
-3
390
13
347
21
  0
LAYER
  5
8B
330
1
100
AcDbSymbolTableRecord
100
AcDbLayerTableRecord
  2
ELEC-ECL-LUM
 70
0
 62
2
  6
Continuous
370
-3
390
13
347
21
  0
LAYER
  5
8C
330
1
100
AcDbSymbolTableRecord
100
AcDbLayerTableRecord
  2
ELEC-ECL-SECU
 70
0
 62
3
  6
Continuous
370
-3
390
13
347
21
  0
LAYER
  5
8D
330
1
100
AcDbSymbolTableRecord
100
AcDbLayerTableRecord
  2
ELEC-ECL-CMD
 70
0
 62
4
  6
Continuous
370
-3
390
13
347
21
  0
LAYER
  5
8E
330
1
100
AcDbSymbolTableRecord
100
AcDbLayerTableRecord
  2
ELEC-PC-NORMAL
 70
0
 62
7
  6
Continuous
370
-3
390
13
347
21
  0
LAYER
  5
8F
330
1
100
AcDbSymbolTableRecord
100
AcDbLayerTableRecord
  2
ELEC-PC-SECOURU
 70
0
 62
1
  6
Continuous
370
-3
390
13
347
21
  0
LAYER
  5
90
330
1
100
AcDbSymbolTableRecord
100
AcDbLayerTableRecord
  2
ELEC-PC-IT-ONDULE
 70
0
 62
3
  6
Continuous
370
-3
390
13
347
21
  0
LAYER
  5
91
330
1
100
AcDbSymbolTableRecord
100
AcDbLayerTableRecord
  2
ELEC-TD
 70
0
 62
6
  6
Continuous
370
-3
390
13
347
21
  0
LAYER
  5
92
330
1
100
AcDbSymbolTableRecord
100
AcDbLayerTableRecord
  2
ELEC-TEXTE
 70
0
 62
7
  6
Continuous
370
-3
390
13
347
21
  0
LAYER
  5
93
330
1
100
AcDbSymbolTableRecord
100
AcDbLayerTableRecord
  2
ELEC-LEGENDE
 70
0
 62
7
  6
Continuous
370
-3
390
13
347
21
  0
LAYER
  5
94
330
1
100
AcDbSymbolTableRecord
100
AcDbLayerTableRecord
  2
ELEC-CARTOUCHE
 70
0
 62
7
  6
Continuous
370
-3
390
13
347
21
  0
ENDTAB
  0
TABLE
  2
STYLE
  5
5
330
0
100
AcDbSymbolTable
 70
26
  0
STYLE
  5
29
330
5
100
AcDbSymbolTableRecord
100
AcDbTextStyleTableRecord
  2
Standard
 70
0
 40
0.0
 41
1.0
 50
0.0
 71
0
 42
2.5
  3
txt
  4

  0
STYLE
  5
41
330
5
100
AcDbSymbolTableRecord
100
AcDbTextStyleTableRecord
  2
OpenSans-Light
 70
0
 40
0.0
 41
1.0
 50
0.0
 71
0
 42
2.5
  3
OpenSans-Light.ttf
  4

  0
STYLE
  5
42
330
5
100
AcDbSymbolTableRecord
100
AcDbTextStyleTableRecord
  2
OpenSans-Light-Italic
 70
0
 40
0.0
 41
1.0
 50
0.0
 71
0
 42
2.5
  3
OpenSans-LightItalic.ttf
  4

  0
STYLE
  5
43
330
5
100
AcDbSymbolTableRecord
100
AcDbTextStyleTableRecord
  2
OpenSans
 70
0
 40
0.0
 41
1.0
 50
0.0
 71
0
 42
2.5
  3
OpenSans-Regular.ttf
  4

  0
STYLE
  5
44
330
5
100
AcDbSymbolTableRecord
100
AcDbTextStyleTableRecord
  2
OpenSans-Italic
 70
0
 40
0.0
 41
1.0
 50
0.0
 71
0
 42
2.5
  3
OpenSans-Italic.ttf
  4

  0
STYLE
  5
45
330
5
100
AcDbSymbolTableRecord
100
AcDbTextStyleTableRecord
  2
OpenSans-SemiBold
 70
0
 40
0.0
 41
1.0
 50
0.0
 71
0
 42
2.5
  3
OpenSans-SemiBold.ttf
  4

  0
STYLE
  5
46
330
5
100
AcDbSymbolTableRecord
100
AcDbTextStyleTableRecord
  2
OpenSans-SemiBoldItalic
 70
0
 40
0.0
 41
1.0
 50
0.0
 71
0
 42
2.5
  3
OpenSans-SemiBoldItalic.ttf
  4

  0
STYLE
  5
47
330
5
100
AcDbSymbolTableRecord
100
AcDbTextStyleTableRecord
  2
OpenSans-Bold
 70
0
 40
0.0
 41
1.0
 50
0.0
 71
0
 42
2.5
  3
OpenSans-Bold.ttf
  4

  0
STYLE
  5
48
330
5
100
AcDbSymbolTableRecord
100
AcDbTextStyleTableRecord
  2
OpenSans-BoldItalic
 70
0
 40
0.0
 41
1.0
 50
0.0
 71
0
 42
2.5
  3
OpenSans-BoldItalic.ttf
  4

  0
STYLE
  5
49
330
5
100
AcDbSymbolTableRecord
100
AcDbTextStyleTableRecord
  2
OpenSans-ExtraBold
 70
0
 40
0.0
 41
1.0
 50
0.0
 71
0
 42
2.5
  3
OpenSans-ExtraBold.ttf
  4

  0
STYLE
  5
4A
330
5
100
AcDbSymbolTableRecord
100
AcDbTextStyleTableRecord
  2
OpenSans-ExtraBoldItalic
 70
0
 40
0.0
 41
1.0
 50
0.0
 71
0
 42
2.5
  3
OpenSans-ExtraBoldItalic.ttf
  4

  0
STYLE
  5
4B
330
5
100
AcDbSymbolTableRecord
100
AcDbTextStyleTableRecord
  2
OpenSansCondensed-Bold
 70
0
 40
0.0
 41
1.0
 50
0.0
 71
0
 42
2.5
  3
OpenSansCondensed-Bold.ttf
  4

  0
STYLE
  5
4C
330
5
100
AcDbSymbolTableRecord
100
AcDbTextStyleTableRecord
  2
OpenSansCondensed-Light
 70
0
 40
0.0
 41
1.0
 50
0.0
 71
0
 42
2.5
  3
OpenSansCondensed-Light.ttf
  4

  0
STYLE
  5
4D
330
5
100
AcDbSymbolTableRecord
100
AcDbTextStyleTableRecord
  2
OpenSansCondensed-Italic
 70
0
 40
0.0
 41
1.0
 50
0.0
 71
0
 42
2.5
  3
OpenSansCondensed-LightItalic.ttf
  4

  0
STYLE
  5
4E
330
5
100
AcDbSymbolTableRecord
100
AcDbTextStyleTableRecord
  2
LiberationSans
 70
0
 40
0.0
 41
1.0
 50
0.0
 71
0
 42
2.5
  3
LiberationSans-Regular.ttf
  4

  0
STYLE
  5
4F
330
5
100
AcDbSymbolTableRecord
100
AcDbTextStyleTableRecord
  2
LiberationSans-Bold
 70
0
 40
0.0
 41
1.0
 50
0.0
 71
0
 42
2.5
  3
LiberationSans-Bold.ttf
  4

  0
STYLE
  5
50
330
5
100
AcDbSymbolTableRecord
100
AcDbTextStyleTableRecord
  2
LiberationSans-BoldItalic
 70
0
 40
0.0
 41
1.0
 50
0.0
 71
0
 42
2.5
  3
LiberationSans-BoldItalic.ttf
  4

  0
STYLE
  5
51
330
5
100
AcDbSymbolTableRecord
100
AcDbTextStyleTableRecord
  2
LiberationSans-Italic
 70
0
 40
0.0
 41
1.0
 50
0.0
 71
0
 42
2.5
  3
LiberationSans-Italic.ttf
  4

  0
STYLE
  5
52
330
5
100
AcDbSymbolTableRecord
100
AcDbTextStyleTableRecord
  2
LiberationSerif
 70
0
 40
0.0
 41
1.0
 50
0.0
 71
0
 42
2.5
  3
LiberationSerif-Regular.ttf
  4

  0
STYLE
  5
53
330
5
100
AcDbSymbolTableRecord
100
AcDbTextStyleTableRecord
  2
LiberationSerif-Bold
 70
0
 40
0.0
 41
1.0
 50
0.0
 71
0
 42
2.5
  3
LiberationSerif-Bold.ttf
  4

  0
STYLE
  5
54
330
5
100
AcDbSymbolTableRecord
100
AcDbTextStyleTableRecord
  2
LiberationSerif-BoldItalic
 70
0
 40
0.0
 41
1.0
 50
0.0
 71
0
 42
2.5
  3
LiberationSerif-BoldItalic.ttf
  4

  0
STYLE
  5
55
330
5
100
AcDbSymbolTableRecord
100
AcDbTextStyleTableRecord
  2
LiberationSerif-Italic
 70
0
 40
0.0
 41
1.0
 50
0.0
 71
0
 42
2.5
  3
LiberationSerif-Italic.ttf
  4

  0
STYLE
  5
56
330
5
100
AcDbSymbolTableRecord
100
AcDbTextStyleTableRecord
  2
LiberationMono
 70
0
 40
0.0
 41
1.0
 50
0.0
 71
0
 42
2.5
  3
LiberationMono-Regular.ttf
  4

  0
STYLE
  5
57
330
5
100
AcDbSymbolTableRecord
100
AcDbTextStyleTableRecord
  2
LiberationMono-Bold
 70
0
 40
0.0
 41
1.0
 50
0.0
 71
0
 42
2.5
  3
LiberationMono-Bold.ttf
  4

  0
STYLE
  5
58
330
5
100
AcDbSymbolTableRecord
100
AcDbTextStyleTableRecord
  2
LiberationMono-BoldItalic
 70
0
 40
0.0
 41
1.0
 50
0.0
 71
0
 42
2.5
  3
LiberationMono-BoldItalic.ttf
  4

  0
STYLE
  5
59
330
5
100
AcDbSymbolTableRecord
100
AcDbTextStyleTableRecord
  2
LiberationMono-Italic
 70
0
 40
0.0
 41
1.0
 50
0.0
 71
0
 42
2.5
  3
LiberationMono-Italic.ttf
  4

  0
ENDTAB
  0
TABLE
  2
VIEW
  5
7
330
0
100
AcDbSymbolTable
 70
0
  0
ENDTAB
  0
TABLE
  2
UCS
  5
6
330
0
100
AcDbSymbolTable
 70
0
  0
ENDTAB
  0
TABLE
  2
APPID
  5
3
330
0
100
AcDbSymbolTable
 70
3
  0
APPID
  5
2A
330
3
100
AcDbSymbolTableRecord
100
AcDbRegAppTableRecord
  2
ACAD
 70
0
  0
APPID
  5
2BC
330
3
100
AcDbSymbolTableRecord
100
AcDbRegAppTableRecord
  2
HATCHBACKGROUNDCOLOR
 70
0
  0
APPID
  5
2BD
330
3
100
AcDbSymbolTableRecord
100
AcDbRegAppTableRecord
  2
EZDXF
 70
0
  0
ENDTAB
  0
TABLE
  2
DIMSTYLE
  5
4
330
0
100
AcDbSymbolTable
 70
12
100
AcDbDimStyleTable
  0
DIMSTYLE
105
2B
330
4
100
AcDbSymbolTableRecord
100
AcDbDimStyleTableRecord
  2
Standard
 70
0
 40
1.0
 41
2.5
 42
0.625
 43
3.75
 44
1.25
 45
0.0
 46
0.0
 47
0.0
 48
0.0
 49
2.5
140
2.5
141
2.5
142
0.0
143
0.03937007874
144
1.0
145
0.0
146
1.0
147
0.625
148
0.0
 69
0
 70
0
 71
0
 72
0
 73
0
 74
0
 75
0
 76
0
 77
1
 78
8
 79
3
170
0
171
3
172
1
173
0
174
0
175
0
176
0
177
0
178
0
179
2
271
2
272
2
273
2
274
3
275
0
276
0
277
2
278
44
279
0
280
0
281
0
282
0
283
0
284
8
285
0
286
0
288
0
289
3
290
0
371
-2
372
-2
  0
DIMSTYLE
105
73
330
4
100
AcDbSymbolTableRecord
100
AcDbDimStyleTableRecord
  2
EZDXF
 70
0
 40
1.0
 41
0.175
 42
0.125
 43
3.75
 44
0.375
 45
0.0
 46
0.0
 47
0.0
 48
0.0
 49
2.5
140
0.25
141
2.5
142
0.0
143
0.03937007874
144
100.0
145
0.0
146
0.5
147
0.1
148
0.0
 69
0
 70
0
 71
0
 72
0
 73
0
 74
0
 75
0
 76
0
 77
1
 78
12
 79
3
170
0
171
3
172
1
173
0
174
0
175
0
176
0
177
0
178
0
179
2
271
2
272
2
273
2
274
3
275
0
276
0
277
2
278
46
279
2
280
0
281
0
282
0
283
0
284
8
285
0
286
0
288
1
289
3
290
0
340
4C
342
74
371
-2
372
-2
  0
DIMSTYLE
105
7C
330
4
100
AcDbSymbolTableRecord
100
AcDbDimStyleTableRecord
  2
EZ_M_100_H25_CM
 70
0
 40
1.0
 41
0.25
 42
0.125
 43
3.75
 44
0.375
 45
0.0
 46
0.0
 47
0.0
 48
0.0
 49
2.5
140
0.25
141
2.5
142
0.125
143
0.03937007874
144
100.0
145
0.0
146
0.5
147
0.1
148
0.0
 69
0
 70
0
 71
0
 72
0
 73
0
 74
0
 75
0
 76
0
 77
1
 78
12
 79
3
170
0
171
3
172
1
173
0
174
0
175
0
176
0
177
0
178
0
179
2
271
2
272
2
273
2
274
3
275
0
276
0
277
2
278
46
279
2
280
0
281
0
282
0
283
0
284
8
285
0
286
0
288
1
289
3
290
0
340
4C
371
-2
372
-2
  0
DIMSTYLE
105
7D
330
4
100
AcDbSymbolTableRecord
100
AcDbDimStyleTableRecord
  2
EZ_M_50_H25_CM
 70
0
 40
1.0
 41
0.125
 42
0.0625
 43
3.75
 44
0.1875
 45
0.0
 46
0.0
 47
0.0
 48
0.0
 49
2.5
140
0.125
141
2.5
142
0.0625
143
0.03937007874
144
100.0
145
0.0
146
0.5
147
0.05
148
0.0
 69
0
 70
0
 71
0
 72
0
 73
0
 74
0
 75
0
 76
0
 77
1
 78
12
 79
3
170
0
171
3
172
1
173
0
174
0
175
0
176
0
177
0
178
0
179
2
271
2
272
2
273
2
274
3
275
0
276
0
277
2
278
46
279
2
280
0
281
0
282
0
283
0
284
8
285
0
286
0
288
1
289
3
290
0
340
4C
371
-2
372
-2
  0
DIMSTYLE
105
7E
330
4
100
AcDbSymbolTableRecord
100
AcDbDimStyleTableRecord
  2
EZ_M_25_H25_CM
 70
0
 40
1.0
 41
0.0625
 42
0.03125
 43
3.75
 44
0.09375
 45
0.0
 46
0.0
 47
0.0
 48
0.0
 49
2.5
140
0.0625
141
2.5
142
0.03125
143
0.03937007874
144
100.0
145
0.0
146
0.5
147
0.025
148
0.0
 69
0
 70
0
 71
0
 72
0
 73
0
 74
0
 75
0
 76
0
 77
1
 78
12
 79
3
170
0
171
3
172
1
173
0
174
0
175
0
176
0
177
0
178
0
179
2
271
2
272
2
273
2
274
3
275
0
276
0
277
2
278
46
279
2
280
0
281
0
282
0
283
0
284
8
285
0
286
0
288
1
289
3
290
0
340
4C
371
-2
372
-2
  0
DIMSTYLE
105
7F
330
4
100
AcDbSymbolTableRecord
100
AcDbDimStyleTableRecord
  2
EZ_M_20_H25_CM
 70
0
 40
1.0
 41
0.05
 42
0.025
 43
3.75
 44
0.07500000000000001
 45
0.0
 46
0.0
 47
0.0
 48
0.0
 49
2.5
140
0.05
141
2.5
142
0.025
143
0.03937007874
144
100.0
145
0.0
146
0.5
147
0.020000000000000004
148
0.0
 69
0
 70
0
 71
0
 72
0
 73
0
 74
0
 75
0
 76
0
 77
1
 78
12
 79
3
170
0
171
3
172
1
173
0
174
0
175
0
176
0
177
0
178
0
179
2
271
2
272
2
273
2
274
3
275
0
276
0
277
2
278
46
279
2
280
0
281
0
282
0
283
0
284
8
285
0
286
0
288
1
289
3
290
0
340
4C
371
-2
372
-2
  0
DIMSTYLE
105
80
330
4
100
AcDbSymbolTableRecord
100
AcDbDimStyleTableRecord
  2
EZ_M_10_H25_CM
 70
0
 40
1.0
 41
0.025
 42
0.0125
 43
3.75
 44
0.037500000000000006
 45
0.0
 46
0.0
 47
0.0
 48
0.0
 49
2.5
140
0.025
141
2.5
142
0.0125
143
0.03937007874
144
100.0
145
0.0
146
0.5
147
0.010000000000000002
148
0.0
 69
0
 70
0
 71
0
 72
0
 73
0
 74
0
 75
0
 76
0
 77
1
 78
12
 79
3
170
0
171
3
172
1
173
0
174
0
175
0
176
0
177
0
178
0
179
2
271
2
272
2
273
2
274
3
275
0
276
0
277
2
278
46
279
2
280
0
281
0
282
0
283
0
284
8
285
0
286
0
288
1
289
3
290
0
340
4C
371
-2
372
-2
  0
DIMSTYLE
105
81
330
4
100
AcDbSymbolTableRecord
100
AcDbDimStyleTableRecord
  2
EZ_M_5_H25_CM
 70
0
 40
1.0
 41
0.0125
 42
0.00625
 43
3.75
 44
0.018750000000000003
 45
0.0
 46
0.0
 47
0.0
 48
0.0
 49
2.5
140
0.0125
141
2.5
142
0.00625
143
0.03937007874
144
100.0
145
0.0
146
0.5
147
0.005000000000000001
148
0.0
 69
0
 70
0
 71
0
 72
0
 73
0
 74
0
 75
0
 76
0
 77
1
 78
12
 79
3
170
0
171
3
172
1
173
0
174
0
175
0
176
0
177
0
178
0
179
2
271
2
272
2
273
2
274
3
275
0
276
0
277
2
278
46
279
2
280
0
281
0
282
0
283
0
284
8
285
0
286
0
288
1
289
3
290
0
340
4C
371
-2
372
-2
  0
DIMSTYLE
105
82
330
4
100
AcDbSymbolTableRecord
100
AcDbDimStyleTableRecord
  2
EZ_M_1_H25_CM
 70
0
 40
1.0
 41
0.0025
 42
0.00125
 43
3.75
 44
0.00375
 45
0.0
 46
0.0
 47
0.0
 48
0.0
 49
2.5
140
0.0025
141
2.5
142
0.00125
143
0.03937007874
144
100.0
145
0.0
146
0.5
147
0.001
148
0.0
 69
0
 70
0
 71
0
 72
0
 73
0
 74
0
 75
0
 76
0
 77
1
 78
12
 79
3
170
0
171
3
172
1
173
0
174
0
175
0
176
0
177
0
178
0
179
2
271
2
272
2
273
2
274
3
275
0
276
0
277
2
278
46
279
2
280
0
281
0
282
0
283
0
284
8
285
0
286
0
288
1
289
3
290
0
340
4C
371
-2
372
-2
  0
DIMSTYLE
105
83
330
4
100
AcDbSymbolTableRecord
100
AcDbDimStyleTableRecord
  2
EZ_RADIUS
 70
0
 40
1.0
 41
0.25
 42
0.125
 43
3.75
 44
0.375
 45
0.0
 46
0.0
 47
0.0
 48
0.0
 49
2.5
140
0.25
141
0.0
142
0.0
143
0.03937007874
144
100.0
145
0.0
146
0.5
147
0.1
148
0.0
 69
0
 70
0
 71
0
 72
0
 73
0
 74
0
 75
0
 76
0
 77
1
 78
12
 79
3
170
0
171
3
172
0
173
0
174
0
175
0
176
0
177
0
178
0
179
2
271
2
272
2
273
2
274
3
275
0
276
0
277
2
278
46
279
1
280
0
281
0
282
0
283
0
284
8
285
0
286
0
288
1
289
3
290
0
340
4C
342
84
371
-2
372
-2
  0
DIMSTYLE
105
88
330
4
100
AcDbSymbolTableRecord
100
AcDbDimStyleTableRecord
  2
EZ_RADIUS_INSIDE
 70
0
 40
1.0
 41
0.25
 42
0.125
 43
3.75
 44
0.375
 45
0.0
 46
0.0
 47
0.0
 48
0.0
 49
2.5
140
0.25
141
0.0
142
0.0
143
0.03937007874
144
100.0
145
0.0
146
0.5
147
0.1
148
0.0
 69
0
 70
0
 71
0
 72
0
 73
0
 74
0
 75
0
 76
0
 77
0
 78
12
 79
3
170
0
171
3
172
0
173
0
174
1
175
0
176
0
177
0
178
0
179
2
271
2
272
2
273
2
274
3
275
0
276
0
277
2
278
46
279
0
280
0
281
0
282
0
283
0
284
8
285
0
286
0
288
1
289
0
290
0
340
4C
342
84
371
-2
372
-2
  0
DIMSTYLE
105
89
330
4
100
AcDbSymbolTableRecord
100
AcDbDimStyleTableRecord
  2
EZ_CURVED
 70
0
 40
1.0
 41
0.25
 42
0.125
 43
3.75
 44
0.375
 45
0.0
 46
0.0
 47
0.0
 48
0.0
 49
2.5
140
0.25
141
2.5
142
0.0
143
0.03937007874
144
100.0
145
0.0
146
0.5
147
0.1
148
0.0
 69
0
 70
0
 71
0
 72
0
 73
0
 74
0
 75
0
 76
0
 77
1
 78
12
 79
2
 90
2
170
0
171
3
172
1
173
0
174
0
175
0
176
0
177
0
178
0
179
2
271
2
272
2
273
2
274
3
275
0
276
0
277
2
278
46
279
2
280
0
281
0
282
0
283
0
284
8
285
0
286
0
288
1
289
3
290
0
340
4C
371
-2
372
-2
  0
ENDTAB
  0
TABLE
  2
BLOCK_RECORD
  5
9
330
0
100
AcDbSymbolTable
 70
30
  0
BLOCK_RECORD
  5
17
330
9
100
AcDbSymbolTableRecord
100
AcDbBlockTableRecord
  2
*Model_Space
340
1A
 70
0
280
1
281
0
  0
BLOCK_RECORD
  5
1B
330
9
100
AcDbSymbolTableRecord
100
AcDbBlockTableRecord
  2
*Paper_Space
340
1E
 70
0
280
1
281
0
  0
BLOCK_RECORD
  5
74
330
9
100
AcDbSymbolTableRecord
100
AcDbBlockTableRecord
  2
_ARCHTICK
340
0
 70
0
280
1
281
0
  0
BLOCK_RECORD
  5
78
330
9
100
AcDbSymbolTableRecord
100
AcDbBlockTableRecord
  2
_CLOSEDFILLED
340
0
 70
0
280
1
281
0
  0
BLOCK_RECORD
  5
84
330
9
100
AcDbSymbolTableRecord
100
AcDbBlockTableRecord
  2
_CLOSEDBLANK
340
0
 70
0
280
1
281
0
  0
BLOCK_RECORD
  5
95
330
9
100
AcDbSymbolTableRecord
100
AcDbBlockTableRecord
  2
ELEC_PAVE
340
0
 70
0
280
1
281
0
  0
BLOCK_RECORD
  5
9B
330
9
100
AcDbSymbolTableRecord
100
AcDbBlockTableRecord
  2
ELEC_DOWNLIGHT
340
0
 70
0
280
1
281
0
  0
BLOCK_RECORD
  5
A1
330
9
100
AcDbSymbolTableRecord
100
AcDbBlockTableRecord
  2
ELEC_REGLETTE
340
0
 70
0
280
1
281
0
  0
BLOCK_RECORD
  5
A6
330
9
100
AcDbSymbolTableRecord
100
AcDbBlockTableRecord
  2
ELEC_ETANCHE
340
0
 70
0
280
1
281
0
  0
BLOCK_RECORD
  5
AC
330
9
100
AcDbSymbolTableRecord
100
AcDbBlockTableRecord
  2
ELEC_HUBLOT
340
0
 70
0
280
1
281
0
  0
BLOCK_RECORD
  5
B1
330
9
100
AcDbSymbolTableRecord
100
AcDbBlockTableRecord
  2
ELEC_SUSPENSION
340
0
 70
0
280
1
281
0
  0
BLOCK_RECORD
  5
B6
330
9
100
AcDbSymbolTableRecord
100
AcDbBlockTableRecord
  2
ELEC_PROJECTEUR
340
0
 70
0
280
1
281
0
  0
BLOCK_RECORD
  5
BD
330
9
100
AcDbSymbolTableRecord
100
AcDbBlockTableRecord
  2
ELEC_CANDELABRE
340
0
 70
0
280
1
281
0
  0
BLOCK_RECORD
  5
C3
330
9
100
AcDbSymbolTableRecord
100
AcDbBlockTableRecord
  2
ELEC_TL
340
0
 70
0
280
1
281
0
  0
BLOCK_RECORD
  5
CB
330
9
100
AcDbSymbolTableRecord
100
AcDbBlockTableRecord
  2
ELEC_GTL
340
0
 70
0
280
1
281
0
  0
BLOCK_RECORD
  5
D3
330
9
100
AcDbSymbolTableRecord
100
AcDbBlockTableRecord
  2
ELEC_BAES
340
0
 70
0
280
1
281
0
  0
BLOCK_RECORD
  5
D8
330
9
100
AcDbSymbolTableRecord
100
AcDbBlockTableRecord
  2
ELEC_BAEH
340
0
 70
0
280
1
281
0
  0
BLOCK_RECORD
  5
DD
330
9
100
AcDbSymbolTableRecord
100
AcDbBlockTableRecord
  2
ELEC_SC
340
0
 70
0
280
1
281
0
  0
BLOCK_RECORD
  5
E1
330
9
100
AcDbSymbolTableRecord
100
AcDbBlockTableRecord
  2
ELEC_DP
340
0
 70
0
280
1
281
0
  0
BLOCK_RECORD
  5
E7
330
9
100
AcDbSymbolTableRecord
100
AcDbBlockTableRecord
  2
ELEC_PC
340
0
 70
0
280
1
281
0
  0
BLOCK_RECORD
  5
ED
330
9
100
AcDbSymbolTableRecord
100
AcDbBlockTableRecord
  2
ELEC_PCS
340
0
 70
0
280
1
281
0
  0
BLOCK_RECORD
  5
F4
330
9
100
AcDbSymbolTableRecord
100
AcDbBlockTableRecord
  2
ELEC_PCO
340
0
 70
0
280
1
281
0
  0
BLOCK_RECORD
  5
FB
330
9
100
AcDbSymbolTableRecord
100
AcDbBlockTableRecord
  2
ELEC_PCE
340
0
 70
0
280
1
281
0
  0
BLOCK_RECORD
  5
102
330
9
100
AcDbSymbolTableRecord
100
AcDbBlockTableRecord
  2
ELEC_PC20
340
0
 70
0
280
1
281
0
  0
BLOCK_RECORD
  5
109
330
9
100
AcDbSymbolTableRecord
100
AcDbBlockTableRecord
  2
ELEC_PCT
340
0
 70
0
280
1
281
0
  0
BLOCK_RECORD
  5
111
330
9
100
AcDbSymbolTableRecord
100
AcDbBlockTableRecord
  2
ELEC_SCA
340
0
 70
0
280
1
281
0
  0
BLOCK_RECORD
  5
117
330
9
100
AcDbSymbolTableRecord
100
AcDbBlockTableRecord
  2
ELEC_TD
340
0
 70
0
280
1
281
0
  0
BLOCK_RECORD
  5
11C
330
9
100
AcDbSymbolTableRecord
100
AcDbBlockTableRecord
  2
ELEC_TRI
340
0
 70
0
280
1
281
0
  0
BLOCK_RECORD
  5
122
330
9
100
AcDbSymbolTableRecord
100
AcDbBlockTableRecord
  2
ELEC_CPI
340
0
 70
0
280
1
281
0
  0
BLOCK_RECORD
  5
127
330
9
100
AcDbSymbolTableRecord
100
AcDbBlockTableRecord
  2
ELEC_LES
340
0
 70
0
280
1
281
0
  0
ENDTAB
  0
ENDSEC
  0
SECTION
  2
BLOCKS
  0
BLOCK
  5
18
330
17
100
AcDbEntity
  8
0
100
AcDbBlockBegin
  2
*Model_Space
 70
0
 10
0.0
 20
0.0
 30
0.0
  3
*Model_Space
  1

  0
ENDBLK
  5
19
330
17
100
AcDbEntity
  8
0
100
AcDbBlockEnd
  0
BLOCK
  5
1C
330
1B
100
AcDbEntity
  8
0
100
AcDbBlockBegin
  2
*Paper_Space
 70
0
 10
0.0
 20
0.0
 30
0.0
  3
*Paper_Space
  1

  0
ENDBLK
  5
1D
330
1B
100
AcDbEntity
  8
0
100
AcDbBlockEnd
  0
BLOCK
  5
75
330
74
100
AcDbEntity
  8
0
100
AcDbBlockBegin
  2
_ARCHTICK
 70
0
 10
0.0
 20
0.0
 30
0.0
  3
_ARCHTICK
  1

  0
LWPOLYLINE
  5
77
330
74
100
AcDbEntity
  8
0
  6
BYBLOCK
 62
0
100
AcDbPolyline
 90
2
 70
0
 43
0.15
 10
-0.5
 20
-0.5
 10
0.5
 20
0.5
  0
ENDBLK
  5
76
330
74
100
AcDbEntity
  8
0
100
AcDbBlockEnd
  0
BLOCK
  5
79
330
78
100
AcDbEntity
  8
0
100
AcDbBlockBegin
  2
_CLOSEDFILLED
 70
0
 10
0.0
 20
0.0
 30
0.0
  3
_CLOSEDFILLED
  1

  0
SOLID
  5
7B
330
78
100
AcDbEntity
  8
0
  6
BYBLOCK
 62
0
100
AcDbTrace
 10
-1.0
 20
0.16439898372402537
 30
0.0
 11
0.0
 21
0.0
 31
0.0
 12
-1.0
 22
-0.16439898372402537
 32
0.0
 13
-1.0
 23
-0.16439898372402537
 33
0.0
  0
ENDBLK
  5
7A
330
78
100
AcDbEntity
  8
0
100
AcDbBlockEnd
  0
BLOCK
  5
85
330
84
100
AcDbEntity
  8
0
100
AcDbBlockBegin
  2
_CLOSEDBLANK
 70
0
 10
0.0
 20
0.0
 30
0.0
  3
_CLOSEDBLANK
  1

  0
LWPOLYLINE
  5
87
330
84
100
AcDbEntity
  8
0
  6
BYBLOCK
 62
0
100
AcDbPolyline
 90
3
 70
1
 10
-1.0
 20
0.16439898372402537
 10
0.0
 20
0.0
 10
-1.0
 20
-0.16439898372402537
  0
ENDBLK
  5
86
330
84
100
AcDbEntity
  8
0
100
AcDbBlockEnd
  0
BLOCK
  5
96
330
95
100
AcDbEntity
  8
0
100
AcDbBlockBegin
  2
ELEC_PAVE
 70
0
 10
0.0
 20
0.0
 30
0.0
  3
ELEC_PAVE
  1

  0
LWPOLYLINE
  5
98
330
95
100
AcDbEntity
  8
0
100
AcDbPolyline
 90
4
 70
1
 10
-300.0
 20
-300.0
 10
300.0
 20
-300.0
 10
300.0
 20
300.0
 10
-300.0
 20
300.0
  0
LINE
  5
99
330
95
100
AcDbEntity
  8
0
100
AcDbLine
 10
-300.0
 20
-300.0
 30
0.0
 11
300.0
 21
300.0
 31
0.0
  0
LINE
  5
9A
330
95
100
AcDbEntity
  8
0
100
AcDbLine
 10
-300.0
 20
300.0
 30
0.0
 11
300.0
 21
-300.0
 31
0.0
  0
ENDBLK
  5
97
330
95
100
AcDbEntity
  8
0
100
AcDbBlockEnd
  0
BLOCK
  5
9C
330
9B
100
AcDbEntity
  8
0
100
AcDbBlockBegin
  2
ELEC_DOWNLIGHT
 70
0
 10
0.0
 20
0.0
 30
0.0
  3
ELEC_DOWNLIGHT
  1

  0
CIRCLE
  5
9E
330
9B
100
AcDbEntity
  8
0
100
AcDbCircle
 10
0.0
 20
0.0
 30
0.0
 40
180.0
  0
LINE
  5
9F
330
9B
100
AcDbEntity
  8
0
100
AcDbLine
 10
-127.27922061357856
 20
-127.27922061357856
 30
0.0
 11
127.27922061357856
 21
127.27922061357856
 31
0.0
  0
LINE
  5
A0
330
9B
100
AcDbEntity
  8
0
100
AcDbLine
 10
-127.27922061357856
 20
127.27922061357856
 30
0.0
 11
127.27922061357856
 21
-127.27922061357856
 31
0.0
  0
ENDBLK
  5
9D
330
9B
100
AcDbEntity
  8
0
100
AcDbBlockEnd
  0
BLOCK
  5
A2
330
A1
100
AcDbEntity
  8
0
100
AcDbBlockBegin
  2
ELEC_REGLETTE
 70
0
 10
0.0
 20
0.0
 30
0.0
  3
ELEC_REGLETTE
  1

  0
LWPOLYLINE
  5
A4
330
A1
100
AcDbEntity
  8
0
100
AcDbPolyline
 90
4
 70
1
 10
-600.0
 20
-90.0
 10
600.0
 20
-90.0
 10
600.0
 20
90.0
 10
-600.0
 20
90.0
  0
LINE
  5
A5
330
A1
100
AcDbEntity
  8
0
100
AcDbLine
 10
-600.0
 20
0.0
 30
0.0
 11
600.0
 21
0.0
 31
0.0
  0
ENDBLK
  5
A3
330
A1
100
AcDbEntity
  8
0
100
AcDbBlockEnd
  0
BLOCK
  5
A7
330
A6
100
AcDbEntity
  8
0
100
AcDbBlockBegin
  2
ELEC_ETANCHE
 70
0
 10
0.0
 20
0.0
 30
0.0
  3
ELEC_ETANCHE
  1

  0
LWPOLYLINE
  5
A9
330
A6
100
AcDbEntity
  8
0
100
AcDbPolyline
 90
4
 70
1
 10
-600.0
 20
-90.0
 10
600.0
 20
-90.0
 10
600.0
 20
90.0
 10
-600.0
 20
90.0
  0
LINE
  5
AA
330
A6
100
AcDbEntity
  8
0
100
AcDbLine
 10
-600.0
 20
0.0
 30
0.0
 11
600.0
 21
0.0
 31
0.0
  0
TEXT
  5
AB
330
A6
100
AcDbEntity
  8
0
100
AcDbText
 10
0.0
 20
220.0
 30
0.0
 40
160.0
  1
IP65
 72
1
 11
0.0
 21
220.0
 31
0.0
100
AcDbText
 73
2
  0
ENDBLK
  5
A8
330
A6
100
AcDbEntity
  8
0
100
AcDbBlockEnd
  0
BLOCK
  5
AD
330
AC
100
AcDbEntity
  8
0
100
AcDbBlockBegin
  2
ELEC_HUBLOT
 70
0
 10
0.0
 20
0.0
 30
0.0
  3
ELEC_HUBLOT
  1

  0
CIRCLE
  5
AF
330
AC
100
AcDbEntity
  8
0
100
AcDbCircle
 10
0.0
 20
0.0
 30
0.0
 40
180.0
  0
CIRCLE
  5
B0
330
AC
100
AcDbEntity
  8
0
100
AcDbCircle
 10
0.0
 20
0.0
 30
0.0
 40
90.0
  0
ENDBLK
  5
AE
330
AC
100
AcDbEntity
  8
0
100
AcDbBlockEnd
  0
BLOCK
  5
B2
330
B1
100
AcDbEntity
  8
0
100
AcDbBlockBegin
  2
ELEC_SUSPENSION
 70
0
 10
0.0
 20
0.0
 30
0.0
  3
ELEC_SUSPENSION
  1

  0
CIRCLE
  5
B4
330
B1
100
AcDbEntity
  8
0
100
AcDbCircle
 10
0.0
 20
0.0
 30
0.0
 40
150.0
  0
LINE
  5
B5
330
B1
100
AcDbEntity
  8
0
100
AcDbLine
 10
0.0
 20
150.0
 30
0.0
 11
0.0
 21
330.0
 31
0.0
  0
ENDBLK
  5
B3
330
B1
100
AcDbEntity
  8
0
100
AcDbBlockEnd
  0
BLOCK
  5
B7
330
B6
100
AcDbEntity
  8
0
100
AcDbBlockBegin
  2
ELEC_PROJECTEUR
 70
0
 10
0.0
 20
0.0
 30
0.0
  3
ELEC_PROJECTEUR
  1

  0
LWPOLYLINE
  5
B9
330
B6
100
AcDbEntity
  8
0
100
AcDbPolyline
 90
4
 70
1
 10
-200.0
 20
-140.0
 10
160.0
 20
-140.0
 10
160.0
 20
140.0
 10
-200.0
 20
140.0
  0
LINE
  5
BA
330
B6
100
AcDbEntity
  8
0
100
AcDbLine
 10
160.0
 20
0.0
 30
0.0
 11
420.0
 21
0.0
 31
0.0
  0
LINE
  5
BB
330
B6
100
AcDbEntity
  8
0
100
AcDbLine
 10
330.0
 20
80.0
 30
0.0
 11
420.0
 21
0.0
 31
0.0
  0
LINE
  5
BC
330
B6
100
AcDbEntity
  8
0
100
AcDbLine
 10
330.0
 20
-80.0
 30
0.0
 11
420.0
 21
0.0
 31
0.0
  0
ENDBLK
  5
B8
330
B6
100
AcDbEntity
  8
0
100
AcDbBlockEnd
  0
BLOCK
  5
BE
330
BD
100
AcDbEntity
  8
0
100
AcDbBlockBegin
  2
ELEC_CANDELABRE
 70
0
 10
0.0
 20
0.0
 30
0.0
  3
ELEC_CANDELABRE
  1

  0
CIRCLE
  5
C0
330
BD
100
AcDbEntity
  8
0
100
AcDbCircle
 10
180.0
 20
0.0
 30
0.0
 40
150.0
  0
LINE
  5
C1
330
BD
100
AcDbEntity
  8
0
100
AcDbLine
 10
30.0
 20
0.0
 30
0.0
 11
-240.0
 21
0.0
 31
0.0
  0
LINE
  5
C2
330
BD
100
AcDbEntity
  8
0
100
AcDbLine
 10
-240.0
 20
-190.0
 30
0.0
 11
-240.0
 21
190.0
 31
0.0
  0
ENDBLK
  5
BF
330
BD
100
AcDbEntity
  8
0
100
AcDbBlockEnd
  0
BLOCK
  5
C4
330
C3
100
AcDbEntity
  8
0
100
AcDbBlockBegin
  2
ELEC_TL
 70
0
 10
0.0
 20
0.0
 30
0.0
  3
ELEC_TL
  1

  0
LWPOLYLINE
  5
C6
330
C3
100
AcDbEntity
  8
0
100
AcDbPolyline
 90
4
 70
1
 10
-750.0
 20
-180.0
 10
750.0
 20
-180.0
 10
750.0
 20
180.0
 10
-750.0
 20
180.0
  0
LINE
  5
C7
330
C3
100
AcDbEntity
  8
0
100
AcDbLine
 10
-375.0
 20
-180.0
 30
0.0
 11
-375.0
 21
180.0
 31
0.0
  0
LINE
  5
C8
330
C3
100
AcDbEntity
  8
0
100
AcDbLine
 10
0.0
 20
-180.0
 30
0.0
 11
0.0
 21
180.0
 31
0.0
  0
LINE
  5
C9
330
C3
100
AcDbEntity
  8
0
100
AcDbLine
 10
375.0
 20
-180.0
 30
0.0
 11
375.0
 21
180.0
 31
0.0
  0
TEXT
  5
CA
330
C3
100
AcDbEntity
  8
0
100
AcDbText
 10
0.0
 20
0.0
 30
0.0
 40
170.0
  1
TL
 72
1
 11
0.0
 21
0.0
 31
0.0
100
AcDbText
 73
2
  0
ENDBLK
  5
C5
330
C3
100
AcDbEntity
  8
0
100
AcDbBlockEnd
  0
BLOCK
  5
CC
330
CB
100
AcDbEntity
  8
0
100
AcDbBlockBegin
  2
ELEC_GTL
 70
0
 10
0.0
 20
0.0
 30
0.0
  3
ELEC_GTL
  1

  0
LWPOLYLINE
  5
CE
330
CB
100
AcDbEntity
  8
0
100
AcDbPolyline
 90
4
 70
1
 10
-900.0
 20
-200.0
 10
900.0
 20
-200.0
 10
900.0
 20
200.0
 10
-900.0
 20
200.0
  0
LINE
  5
CF
330
CB
100
AcDbEntity
  8
0
100
AcDbLine
 10
-450.0
 20
-200.0
 30
0.0
 11
-450.0
 21
200.0
 31
0.0
  0
LINE
  5
D0
330
CB
100
AcDbEntity
  8
0
100
AcDbLine
 10
0.0
 20
-200.0
 30
0.0
 11
0.0
 21
200.0
 31
0.0
  0
LINE
  5
D1
330
CB
100
AcDbEntity
  8
0
100
AcDbLine
 10
450.0
 20
-200.0
 30
0.0
 11
450.0
 21
200.0
 31
0.0
  0
TEXT
  5
D2
330
CB
100
AcDbEntity
  8
0
100
AcDbText
 10
0.0
 20
0.0
 30
0.0
 40
180.0
  1
GTL
 72
1
 11
0.0
 21
0.0
 31
0.0
100
AcDbText
 73
2
  0
ENDBLK
  5
CD
330
CB
100
AcDbEntity
  8
0
100
AcDbBlockEnd
  0
BLOCK
  5
D4
330
D3
100
AcDbEntity
  8
0
100
AcDbBlockBegin
  2
ELEC_BAES
 70
0
 10
0.0
 20
0.0
 30
0.0
  3
ELEC_BAES
  1

  0
LWPOLYLINE
  5
D6
330
D3
100
AcDbEntity
  8
0
100
AcDbPolyline
 90
4
 70
1
 10
-240.0
 20
-150.0
 10
240.0
 20
-150.0
 10
240.0
 20
150.0
 10
-240.0
 20
150.0
  0
TEXT
  5
D7
330
D3
100
AcDbEntity
  8
0
100
AcDbText
 10
0.0
 20
0.0
 30
0.0
 40
170.0
  1
S
 72
1
 11
0.0
 21
0.0
 31
0.0
100
AcDbText
 73
2
  0
ENDBLK
  5
D5
330
D3
100
AcDbEntity
  8
0
100
AcDbBlockEnd
  0
BLOCK
  5
D9
330
D8
100
AcDbEntity
  8
0
100
AcDbBlockBegin
  2
ELEC_BAEH
 70
0
 10
0.0
 20
0.0
 30
0.0
  3
ELEC_BAEH
  1

  0
LWPOLYLINE
  5
DB
330
D8
100
AcDbEntity
  8
0
100
AcDbPolyline
 90
4
 70
1
 10
-280.0
 20
-150.0
 10
280.0
 20
-150.0
 10
280.0
 20
150.0
 10
-280.0
 20
150.0
  0
TEXT
  5
DC
330
D8
100
AcDbEntity
  8
0
100
AcDbText
 10
0.0
 20
0.0
 30
0.0
 40
140.0
  1
S+H
 72
1
 11
0.0
 21
0.0
 31
0.0
100
AcDbText
 73
2
  0
ENDBLK
  5
DA
330
D8
100
AcDbEntity
  8
0
100
AcDbBlockEnd
  0
BLOCK
  5
DE
330
DD
100
AcDbEntity
  8
0
100
AcDbBlockBegin
  2
ELEC_SC
 70
0
 10
0.0
 20
0.0
 30
0.0
  3
ELEC_SC
  1

  0
SOLID
  5
E0
330
DD
100
AcDbEntity
  8
0
100
AcDbTrace
 10
0.0
 20
200.0
 30
0.0
 11
-210.0
 21
-160.0
 31
0.0
 12
210.0
 22
-160.0
 32
0.0
 13
210.0
 23
-160.0
 33
0.0
  0
ENDBLK
  5
DF
330
DD
100
AcDbEntity
  8
0
100
AcDbBlockEnd
  0
BLOCK
  5
E2
330
E1
100
AcDbEntity
  8
0
100
AcDbBlockBegin
  2
ELEC_DP
 70
0
 10
0.0
 20
0.0
 30
0.0
  3
ELEC_DP
  1

  0
LWPOLYLINE
  5
E4
330
E1
100
AcDbEntity
  8
0
100
AcDbPolyline
 90
13
 70
0
 10
210.0
 20
0.0
 10
202.84442352070434
 20
54.35199947152935
 10
181.86533479473212
 20
104.99999999999999
 10
148.49242404917499
 20
148.49242404917496
 10
105.00000000000003
 20
181.8653347947321
 10
54.35199947152935
 20
202.84442352070434
 10
1.2858791391047208e-14
 20
210.0
 10
-54.35199947152938
 20
202.84442352070434
 10
-104.99999999999996
 20
181.86533479473212
 10
-148.49242404917496
 20
148.49242404917499
 10
-181.86533479473212
 20
104.99999999999999
 10
-202.8444235207043
 20
54.35199947152941
 10
-210.0
 20
2.5717582782094416e-14
  0
LINE
  5
E5
330
E1
100
AcDbEntity
  8
0
100
AcDbLine
 10
-210.0
 20
0.0
 30
0.0
 11
210.0
 21
0.0
 31
0.0
  0
TEXT
  5
E6
330
E1
100
AcDbEntity
  8
0
100
AcDbText
 10
0.0
 20
90.0
 30
0.0
 40
120.0
  1
DP
 72
1
 11
0.0
 21
90.0
 31
0.0
100
AcDbText
 73
2
  0
ENDBLK
  5
E3
330
E1
100
AcDbEntity
  8
0
100
AcDbBlockEnd
  0
BLOCK
  5
E8
330
E7
100
AcDbEntity
  8
0
100
AcDbBlockBegin
  2
ELEC_PC
 70
0
 10
0.0
 20
0.0
 30
0.0
  3
ELEC_PC
  1

  0
LWPOLYLINE
  5
EA
330
E7
100
AcDbEntity
  8
0
100
AcDbPolyline
 90
19
 70
0
 10
200.0
 20
0.0
 10
196.9615506024416
 20
34.729635533386066
 10
187.9385241571817
 20
68.40402866513374
 10
173.20508075688775
 20
99.99999999999999
 10
153.20888862379562
 20
128.55752193730785
 10
128.55752193730788
 20
153.20888862379562
 10
100.00000000000003
 20
173.20508075688772
 10
68.40402866513377
 20
187.93852415718166
 10
34.72963553338608
 20
196.9615506024416
 10
1.2246467991473532e-14
 20
200.0
 10
-34.72963553338606
 20
196.9615506024416
 10
-68.40402866513374
 20
187.9385241571817
 10
-99.99999999999996
 20
173.20508075688775
 10
-128.55752193730788
 20
153.20888862379562
 10
-153.2088886237956
 20
128.55752193730788
 10
-173.20508075688775
 20
99.99999999999999
 10
-187.93852415718166
 20
68.40402866513378
 10
-196.9615506024416
 20
34.72963553338605
 10
-200.0
 20
2.4492935982947064e-14
  0
LINE
  5
EB
330
E7
100
AcDbEntity
  8
0
100
AcDbLine
 10
-200.0
 20
0.0
 30
0.0
 11
200.0
 21
0.0
 31
0.0
  0
LINE
  5
EC
330
E7
100
AcDbEntity
  8
0
100
AcDbLine
 10
0.0
 20
200.0
 30
0.0
 11
0.0
 21
420.0
 31
0.0
  0
ENDBLK
  5
E9
330
E7
100
AcDbEntity
  8
0
100
AcDbBlockEnd
  0
BLOCK
  5
EE
330
ED
100
AcDbEntity
  8
0
100
AcDbBlockBegin
  2
ELEC_PCS
 70
0
 10
0.0
 20
0.0
 30
0.0
  3
ELEC_PCS
  1

  0
LWPOLYLINE
  5
F0
330
ED
100
AcDbEntity
  8
0
100
AcDbPolyline
 90
19
 70
0
 10
200.0
 20
0.0
 10
196.9615506024416
 20
34.729635533386066
 10
187.9385241571817
 20
68.40402866513374
 10
173.20508075688775
 20
99.99999999999999
 10
153.20888862379562
 20
128.55752193730785
 10
128.55752193730788
 20
153.20888862379562
 10
100.00000000000003
 20
173.20508075688772
 10
68.40402866513377
 20
187.93852415718166
 10
34.72963553338608
 20
196.9615506024416
 10
1.2246467991473532e-14
 20
200.0
 10
-34.72963553338606
 20
196.9615506024416
 10
-68.40402866513374
 20
187.9385241571817
 10
-99.99999999999996
 20
173.20508075688775
 10
-128.55752193730788
 20
153.20888862379562
 10
-153.2088886237956
 20
128.55752193730788
 10
-173.20508075688775
 20
99.99999999999999
 10
-187.93852415718166
 20
68.40402866513378
 10
-196.9615506024416
 20
34.72963553338605
 10
-200.0
 20
2.4492935982947064e-14
  0
LINE
  5
F1
330
ED
100
AcDbEntity
  8
0
100
AcDbLine
 10
-200.0
 20
0.0
 30
0.0
 11
200.0
 21
0.0
 31
0.0
  0
LINE
  5
F2
330
ED
100
AcDbEntity
  8
0
100
AcDbLine
 10
0.0
 20
200.0
 30
0.0
 11
0.0
 21
420.0
 31
0.0
  0
HATCH
  5
F3
330
ED
100
AcDbEntity
  8
0
 62
7
100
AcDbHatch
 10
0.0
 20
0.0
 30
0.0
210
0.0
220
0.0
230
1.0
  2
SOLID
 70
1
 71
0
 91
1
 92
3
 72
0
 73
1
 93
14
 10
200.0
 20
0.0
 10
193.18516525781365
 20
51.76380902050415
 10
173.20508075688775
 20
99.99999999999999
 10
141.4213562373095
 20
141.42135623730948
 10
100.00000000000003
 20
173.20508075688772
 10
51.76380902050415
 20
193.18516525781365
 10
1.2246467991473532e-14
 20
200.0
 10
-51.76380902050417
 20
193.18516525781365
 10
-99.99999999999996
 20
173.20508075688775
 10
-141.42135623730948
 20
141.4213562373095
 10
-173.20508075688775
 20
99.99999999999999
 10
-193.18516525781365
 20
51.763809020504205
 10
-200.0
 20
2.4492935982947064e-14
 10
-200.0
 20
0.0
 97
0
 75
0
 76
1
 98
0
  0
ENDBLK
  5
EF
330
ED
100
AcDbEntity
  8
0
100
AcDbBlockEnd
  0
BLOCK
  5
F5
330
F4
100
AcDbEntity
  8
0
100
AcDbBlockBegin
  2
ELEC_PCO
 70
0
 10
0.0
 20
0.0
 30
0.0
  3
ELEC_PCO
  1

  0
LWPOLYLINE
  5
F7
330
F4
100
AcDbEntity
  8
0
100
AcDbPolyline
 90
19
 70
0
 10
200.0
 20
0.0
 10
196.9615506024416
 20
34.729635533386066
 10
187.9385241571817
 20
68.40402866513374
 10
173.20508075688775
 20
99.99999999999999
 10
153.20888862379562
 20
128.55752193730785
 10
128.55752193730788
 20
153.20888862379562
 10
100.00000000000003
 20
173.20508075688772
 10
68.40402866513377
 20
187.93852415718166
 10
34.72963553338608
 20
196.9615506024416
 10
1.2246467991473532e-14
 20
200.0
 10
-34.72963553338606
 20
196.9615506024416
 10
-68.40402866513374
 20
187.9385241571817
 10
-99.99999999999996
 20
173.20508075688775
 10
-128.55752193730788
 20
153.20888862379562
 10
-153.2088886237956
 20
128.55752193730788
 10
-173.20508075688775
 20
99.99999999999999
 10
-187.93852415718166
 20
68.40402866513378
 10
-196.9615506024416
 20
34.72963553338605
 10
-200.0
 20
2.4492935982947064e-14
  0
LINE
  5
F8
330
F4
100
AcDbEntity
  8
0
100
AcDbLine
 10
-200.0
 20
0.0
 30
0.0
 11
200.0
 21
0.0
 31
0.0
  0
LINE
  5
F9
330
F4
100
AcDbEntity
  8
0
100
AcDbLine
 10
0.0
 20
200.0
 30
0.0
 11
0.0
 21
420.0
 31
0.0
  0
TEXT
  5
FA
330
F4
100
AcDbEntity
  8
0
100
AcDbText
 10
330.0
 20
160.0
 30
0.0
 40
160.0
  1
O
 72
1
 11
330.0
 21
160.0
 31
0.0
100
AcDbText
 73
2
  0
ENDBLK
  5
F6
330
F4
100
AcDbEntity
  8
0
100
AcDbBlockEnd
  0
BLOCK
  5
FC
330
FB
100
AcDbEntity
  8
0
100
AcDbBlockBegin
  2
ELEC_PCE
 70
0
 10
0.0
 20
0.0
 30
0.0
  3
ELEC_PCE
  1

  0
LWPOLYLINE
  5
FE
330
FB
100
AcDbEntity
  8
0
100
AcDbPolyline
 90
19
 70
0
 10
200.0
 20
0.0
 10
196.9615506024416
 20
34.729635533386066
 10
187.9385241571817
 20
68.40402866513374
 10
173.20508075688775
 20
99.99999999999999
 10
153.20888862379562
 20
128.55752193730785
 10
128.55752193730788
 20
153.20888862379562
 10
100.00000000000003
 20
173.20508075688772
 10
68.40402866513377
 20
187.93852415718166
 10
34.72963553338608
 20
196.9615506024416
 10
1.2246467991473532e-14
 20
200.0
 10
-34.72963553338606
 20
196.9615506024416
 10
-68.40402866513374
 20
187.9385241571817
 10
-99.99999999999996
 20
173.20508075688775
 10
-128.55752193730788
 20
153.20888862379562
 10
-153.2088886237956
 20
128.55752193730788
 10
-173.20508075688775
 20
99.99999999999999
 10
-187.93852415718166
 20
68.40402866513378
 10
-196.9615506024416
 20
34.72963553338605
 10
-200.0
 20
2.4492935982947064e-14
  0
LINE
  5
FF
330
FB
100
AcDbEntity
  8
0
100
AcDbLine
 10
-200.0
 20
0.0
 30
0.0
 11
200.0
 21
0.0
 31
0.0
  0
LINE
  5
100
330
FB
100
AcDbEntity
  8
0
100
AcDbLine
 10
0.0
 20
200.0
 30
0.0
 11
0.0
 21
420.0
 31
0.0
  0
TEXT
  5
101
330
FB
100
AcDbEntity
  8
0
100
AcDbText
 10
0.0
 20
-320.0
 30
0.0
 40
150.0
  1
IP55
 72
1
 11
0.0
 21
-320.0
 31
0.0
100
AcDbText
 73
2
  0
ENDBLK
  5
FD
330
FB
100
AcDbEntity
  8
0
100
AcDbBlockEnd
  0
BLOCK
  5
103
330
102
100
AcDbEntity
  8
0
100
AcDbBlockBegin
  2
ELEC_PC20
 70
0
 10
0.0
 20
0.0
 30
0.0
  3
ELEC_PC20
  1

  0
LWPOLYLINE
  5
105
330
102
100
AcDbEntity
  8
0
100
AcDbPolyline
 90
19
 70
0
 10
200.0
 20
0.0
 10
196.9615506024416
 20
34.729635533386066
 10
187.9385241571817
 20
68.40402866513374
 10
173.20508075688775
 20
99.99999999999999
 10
153.20888862379562
 20
128.55752193730785
 10
128.55752193730788
 20
153.20888862379562
 10
100.00000000000003
 20
173.20508075688772
 10
68.40402866513377
 20
187.93852415718166
 10
34.72963553338608
 20
196.9615506024416
 10
1.2246467991473532e-14
 20
200.0
 10
-34.72963553338606
 20
196.9615506024416
 10
-68.40402866513374
 20
187.9385241571817
 10
-99.99999999999996
 20
173.20508075688775
 10
-128.55752193730788
 20
153.20888862379562
 10
-153.2088886237956
 20
128.55752193730788
 10
-173.20508075688775
 20
99.99999999999999
 10
-187.93852415718166
 20
68.40402866513378
 10
-196.9615506024416
 20
34.72963553338605
 10
-200.0
 20
2.4492935982947064e-14
  0
LINE
  5
106
330
102
100
AcDbEntity
  8
0
100
AcDbLine
 10
-200.0
 20
0.0
 30
0.0
 11
200.0
 21
0.0
 31
0.0
  0
LINE
  5
107
330
102
100
AcDbEntity
  8
0
100
AcDbLine
 10
0.0
 20
200.0
 30
0.0
 11
0.0
 21
420.0
 31
0.0
  0
TEXT
  5
108
330
102
100
AcDbEntity
  8
0
100
AcDbText
 10
0.0
 20
-320.0
 30
0.0
 40
150.0
  1
20A
 72
1
 11
0.0
 21
-320.0
 31
0.0
100
AcDbText
 73
2
  0
ENDBLK
  5
104
330
102
100
AcDbEntity
  8
0
100
AcDbBlockEnd
  0
BLOCK
  5
10A
330
109
100
AcDbEntity
  8
0
100
AcDbBlockBegin
  2
ELEC_PCT
 70
0
 10
0.0
 20
0.0
 30
0.0
  3
ELEC_PCT
  1

  0
LWPOLYLINE
  5
10C
330
109
100
AcDbEntity
  8
0
100
AcDbPolyline
 90
19
 70
0
 10
200.0
 20
0.0
 10
196.9615506024416
 20
34.729635533386066
 10
187.9385241571817
 20
68.40402866513374
 10
173.20508075688775
 20
99.99999999999999
 10
153.20888862379562
 20
128.55752193730785
 10
128.55752193730788
 20
153.20888862379562
 10
100.00000000000003
 20
173.20508075688772
 10
68.40402866513377
 20
187.93852415718166
 10
34.72963553338608
 20
196.9615506024416
 10
1.2246467991473532e-14
 20
200.0
 10
-34.72963553338606
 20
196.9615506024416
 10
-68.40402866513374
 20
187.9385241571817
 10
-99.99999999999996
 20
173.20508075688775
 10
-128.55752193730788
 20
153.20888862379562
 10
-153.2088886237956
 20
128.55752193730788
 10
-173.20508075688775
 20
99.99999999999999
 10
-187.93852415718166
 20
68.40402866513378
 10
-196.9615506024416
 20
34.72963553338605
 10
-200.0
 20
2.4492935982947064e-14
  0
LINE
  5
10D
330
109
100
AcDbEntity
  8
0
100
AcDbLine
 10
-200.0
 20
0.0
 30
0.0
 11
200.0
 21
0.0
 31
0.0
  0
LINE
  5
10E
330
109
100
AcDbEntity
  8
0
100
AcDbLine
 10
-100.0
 20
170.0
 30
0.0
 11
-100.0
 21
400.0
 31
0.0
  0
LINE
  5
10F
330
109
100
AcDbEntity
  8
0
100
AcDbLine
 10
0.0
 20
200.0
 30
0.0
 11
0.0
 21
400.0
 31
0.0
  0
LINE
  5
110
330
109
100
AcDbEntity
  8
0
100
AcDbLine
 10
100.0
 20
170.0
 30
0.0
 11
100.0
 21
400.0
 31
0.0
  0
ENDBLK
  5
10B
330
109
100
AcDbEntity
  8
0
100
AcDbBlockEnd
  0
BLOCK
  5
112
330
111
100
AcDbEntity
  8
0
100
AcDbBlockBegin
  2
ELEC_SCA
 70
0
 10
0.0
 20
0.0
 30
0.0
  3
ELEC_SCA
  1

  0
LINE
  5
114
330
111
100
AcDbEntity
  8
0
100
AcDbLine
 10
-260.0
 20
0.0
 30
0.0
 11
40.0
 21
0.0
 31
0.0
  0
HATCH
  5
115
330
111
100
AcDbEntity
  8
0
 62
7
100
AcDbHatch
 10
0.0
 20
0.0
 30
0.0
210
0.0
220
0.0
230
1.0
  2
SOLID
 70
1
 71
0
 91
1
 92
3
 72
0
 73
1
 93
18
 10
230.0
 20
0.0
 10
224.57233587073176
 20
30.781812899310186
 10
208.94399988070802
 20
57.85088487178853
 10
185.0
 20
77.94228634059948
 10
155.62833599002374
 20
88.63269777109872
 10
124.37166400997627
 20
88.63269777109872
 10
95.00000000000003
 20
77.94228634059948
 10
71.056000119292
 20
57.85088487178855
 10
55.42766412926825
 20
30.7818128993102
 10
50.0
 20
1.1021821192326179e-14
 10
55.42766412926824
 20
-30.78181289931018
 10
71.05600011929198
 20
-57.85088487178853
 10
94.99999999999996
 20
-77.94228634059945
 10
124.37166400997627
 20
-88.63269777109872
 10
155.6283359900237
 20
-88.63269777109873
 10
185.0
 20
-77.94228634059948
 10
208.94399988070802
 20
-57.850884871788566
 10
224.57233587073176
 20
-30.781812899310175
 97
0
 75
0
 76
1
 98
0
  0
CIRCLE
  5
116
330
111
100
AcDbEntity
  8
0
100
AcDbCircle
 10
140.0
 20
0.0
 30
0.0
 40
90.0
  0
ENDBLK
  5
113
330
111
100
AcDbEntity
  8
0
100
AcDbBlockEnd
  0
BLOCK
  5
118
330
117
100
AcDbEntity
  8
0
100
AcDbBlockBegin
  2
ELEC_TD
 70
0
 10
0.0
 20
0.0
 30
0.0
  3
ELEC_TD
  1

  0
SOLID
  5
11A
330
117
100
AcDbEntity
  8
0
100
AcDbTrace
 10
-450.0
 20
-220.0
 30
0.0
 11
450.0
 21
-220.0
 31
0.0
 12
-450.0
 22
220.0
 32
0.0
 13
450.0
 23
220.0
 33
0.0
  0
LWPOLYLINE
  5
11B
330
117
100
AcDbEntity
  8
0
100
AcDbPolyline
 90
4
 70
1
 10
-450.0
 20
-220.0
 10
450.0
 20
-220.0
 10
450.0
 20
220.0
 10
-450.0
 20
220.0
  0
ENDBLK
  5
119
330
117
100
AcDbEntity
  8
0
100
AcDbBlockEnd
  0
BLOCK
  5
11D
330
11C
100
AcDbEntity
  8
0
100
AcDbBlockBegin
  2
ELEC_TRI
 70
0
 10
0.0
 20
0.0
 30
0.0
  3
ELEC_TRI
  1

  0
LWPOLYLINE
  5
11F
330
11C
100
AcDbEntity
  8
0
100
AcDbPolyline
 90
4
 70
1
 10
-340.0
 20
-190.0
 10
340.0
 20
-190.0
 10
340.0
 20
190.0
 10
-340.0
 20
190.0
  0
CIRCLE
  5
120
330
11C
100
AcDbEntity
  8
0
100
AcDbCircle
 10
-100.0
 20
0.0
 30
0.0
 40
100.0
  0
CIRCLE
  5
121
330
11C
100
AcDbEntity
  8
0
100
AcDbCircle
 10
100.0
 20
0.0
 30
0.0
 40
100.0
  0
ENDBLK
  5
11E
330
11C
100
AcDbEntity
  8
0
100
AcDbBlockEnd
  0
BLOCK
  5
123
330
122
100
AcDbEntity
  8
0
100
AcDbBlockBegin
  2
ELEC_CPI
 70
0
 10
0.0
 20
0.0
 30
0.0
  3
ELEC_CPI
  1

  0
LWPOLYLINE
  5
125
330
122
100
AcDbEntity
  8
0
100
AcDbPolyline
 90
4
 70
1
 10
-260.0
 20
-160.0
 10
260.0
 20
-160.0
 10
260.0
 20
160.0
 10
-260.0
 20
160.0
  0
TEXT
  5
126
330
122
100
AcDbEntity
  8
0
100
AcDbText
 10
0.0
 20
0.0
 30
0.0
 40
150.0
  1
CPI
 72
1
 11
0.0
 21
0.0
 31
0.0
100
AcDbText
 73
2
  0
ENDBLK
  5
124
330
122
100
AcDbEntity
  8
0
100
AcDbBlockEnd
  0
BLOCK
  5
128
330
127
100
AcDbEntity
  8
0
100
AcDbBlockBegin
  2
ELEC_LES
 70
0
 10
0.0
 20
0.0
 30
0.0
  3
ELEC_LES
  1

  0
LINE
  5
12A
330
127
100
AcDbEntity
  8
0
100
AcDbLine
 10
0.0
 20
220.0
 30
0.0
 11
0.0
 21
0.0
 31
0.0
  0
LINE
  5
12B
330
127
100
AcDbEntity
  8
0
100
AcDbLine
 10
-180.0
 20
0.0
 30
0.0
 11
180.0
 21
0.0
 31
0.0
  0
LINE
  5
12C
330
127
100
AcDbEntity
  8
0
100
AcDbLine
 10
-120.0
 20
-90.0
 30
0.0
 11
120.0
 21
-90.0
 31
0.0
  0
LINE
  5
12D
330
127
100
AcDbEntity
  8
0
100
AcDbLine
 10
-60.0
 20
-180.0
 30
0.0
 11
60.0
 21
-180.0
 31
0.0
  0
ENDBLK
  5
129
330
127
100
AcDbEntity
  8
0
100
AcDbBlockEnd
  0
ENDSEC
  0
SECTION
  2
ENTITIES
  0
IMAGE
  5
131
330
17
100
AcDbEntity
  8
FOND-ARCHI
100
AcDbRasterImage
 90
0
 10
0.0
 20
0.0
 30
0.0
 11
35.2706689056815
 21
0.0
 31
0.0
 12
2.1596277842327247e-15
 22
35.269398258115594
 32
0.0
 13
3573.0
 23
2526.0
340
130
 70
3
280
0
281
50
282
50
283
0
360
132
 71
1
 91
2
 14
-0.5
 24
-0.5
 14
3572.5
 24
2525.5
290
0
  0
INSERT
  5
133
330
17
100
AcDbEntity
  8
ELEC-ECL-LUM
100
AcDbBlockReference
  2
ELEC_DOWNLIGHT
 10
39696.9615
 20
58621.548999999985
 30
0.0
  0
INSERT
  5
135
330
17
100
AcDbEntity
  8
ELEC-ECL-LUM
100
AcDbBlockReference
  2
ELEC_DOWNLIGHT
 10
45367.956
 20
58621.548999999985
 30
0.0
  0
INSERT
  5
137
330
17
100
AcDbEntity
  8
ELEC-ECL-LUM
100
AcDbBlockReference
  2
ELEC_DOWNLIGHT
 10
51038.9505
 20
58621.548999999985
 30
0.0
  0
INSERT
  5
139
330
17
100
AcDbEntity
  8
ELEC-ECL-LUM
100
AcDbBlockReference
  2
ELEC_DOWNLIGHT
 10
56709.945
 20
58621.548999999985
 30
0.0
  0
INSERT
  5
13B
330
17
100
AcDbEntity
  8
ELEC-ECL-LUM
100
AcDbBlockReference
  2
ELEC_DOWNLIGHT
 10
62380.93949999999
 20
58621.548999999985
 30
0.0
  0
INSERT
  5
13D
330
17
100
AcDbEntity
  8
ELEC-ECL-LUM
100
AcDbBlockReference
  2
ELEC_DOWNLIGHT
 10
50408.84
 20
27618.055
 30
0.0
  0
INSERT
  5
13F
330
17
100
AcDbEntity
  8
ELEC-ECL-LUM
100
AcDbBlockReference
  2
ELEC_DOWNLIGHT
 10
55449.723999999995
 20
27618.055
 30
0.0
  0
INSERT
  5
141
330
17
100
AcDbEntity
  8
ELEC-ECL-LUM
100
AcDbBlockReference
  2
ELEC_DOWNLIGHT
 10
60490.60799999999
 20
27618.055
 30
0.0
  0
INSERT
  5
143
330
17
100
AcDbEntity
  8
ELEC-ECL-LUM
100
AcDbBlockReference
  2
ELEC_DOWNLIGHT
 10
65531.492
 20
27618.055
 30
0.0
  0
INSERT
  5
145
330
17
100
AcDbEntity
  8
ELEC-ECL-LUM
100
AcDbBlockReference
  2
ELEC_DOWNLIGHT
 10
44107.73499999999
 20
28687.140999999992
 30
0.0
  0
INSERT
  5
147
330
17
100
AcDbEntity
  8
ELEC-ECL-LUM
100
AcDbBlockReference
  2
ELEC_DOWNLIGHT
 10
34278.0112
 20
50781.585
 30
0.0
  0
INSERT
  5
149
330
17
100
AcDbEntity
  8
ELEC-ECL-LUM
100
AcDbBlockReference
  2
ELEC_DOWNLIGHT
 10
34278.0112
 20
45436.15499999999
 30
0.0
  0
INSERT
  5
14B
330
17
100
AcDbEntity
  8
ELEC-ECL-LUM
100
AcDbBlockReference
  2
ELEC_DOWNLIGHT
 10
73722.9285
 20
61026.99249999999
 30
0.0
  0
INSERT
  5
14D
330
17
100
AcDbEntity
  8
ELEC-ECL-LUM
100
AcDbBlockReference
  2
ELEC_DOWNLIGHT
 10
76243.37049999999
 20
58354.27749999999
 30
0.0
  0
INSERT
  5
14F
330
17
100
AcDbEntity
  8
ELEC-ECL-LUM
100
AcDbBlockReference
  2
ELEC_PAVE
 10
44737.845499999996
 20
62808.8025
 30
0.0
  0
TEXT
  5
151
330
17
100
AcDbEntity
  8
ELEC-TEXTE
100
AcDbText
 10
45387.845499999996
 20
62058.8025
 30
0.0
 40
550.0
  1
L1 - échographie
 11
45387.845499999996
 21
62058.8025
 31
0.0
100
AcDbText
  0
INSERT
  5
152
330
17
100
AcDbEntity
  8
ELEC-ECL-LUM
100
AcDbBlockReference
  2
ELEC_PAVE
 10
63641.1605
 20
63699.7075
 30
0.0
  0
TEXT
  5
154
330
17
100
AcDbEntity
  8
ELEC-TEXTE
100
AcDbText
 10
64291.1605
 20
62949.7075
 30
0.0
 40
550.0
  1
L1 - surv. soins
 11
64291.1605
 21
62949.7075
 31
0.0
100
AcDbText
  0
INSERT
  5
155
330
17
100
AcDbEntity
  8
ELEC-ECL-LUM
100
AcDbBlockReference
  2
ELEC_PAVE
 10
42847.514
 20
31627.127499999995
 30
0.0
  0
TEXT
  5
157
330
17
100
AcDbEntity
  8
ELEC-TEXTE
100
AcDbText
 10
43497.514
 20
30877.127499999995
 30
0.0
 40
550.0
  1
L1 - réunion
 11
43497.514
 21
30877.127499999995
 31
0.0
100
AcDbText
  0
INSERT
  5
158
330
17
100
AcDbEntity
  8
ELEC-ECL-LUM
100
AcDbBlockReference
  2
ELEC_PAVE
 10
43477.62449999999
 20
24499.887499999997
 30
0.0
  0
TEXT
  5
15A
330
17
100
AcDbEntity
  8
ELEC-TEXTE
100
AcDbText
 10
44127.62449999999
 20
23749.887499999997
 30
0.0
 40
550.0
  1
L1 - bureaux
 11
44127.62449999999
 21
23749.887499999997
 31
0.0
100
AcDbText
  0
INSERT
  5
15B
330
17
100
AcDbEntity
  8
ELEC-ECL-LUM
100
AcDbBlockReference
  2
ELEC_PAVE
 10
52929.28199999999
 20
32072.579999999994
 30
0.0
  0
TEXT
  5
15D
330
17
100
AcDbEntity
  8
ELEC-TEXTE
100
AcDbText
 10
53579.28199999999
 20
31322.579999999994
 30
0.0
 40
550.0
  1
L1 - pharmacie
 11
53579.28199999999
 21
31322.579999999994
 31
0.0
100
AcDbText
  0
INSERT
  5
15E
330
17
100
AcDbEntity
  8
ELEC-ECL-LUM
100
AcDbBlockReference
  2
ELEC_PAVE
 10
59230.386999999995
 20
23608.9825
 30
0.0
  0
TEXT
  5
160
330
17
100
AcDbEntity
  8
ELEC-TEXTE
100
AcDbText
 10
59880.386999999995
 20
22858.9825
 30
0.0
 40
550.0
  1
L1 - postes consult. (x5)
 11
59880.386999999995
 21
22858.9825
 31
0.0
100
AcDbText
  0
INSERT
  5
161
330
17
100
AcDbEntity
  8
ELEC-ECL-LUM
100
AcDbBlockReference
  2
ELEC_SUSPENSION
 10
70572.376
 20
27618.055
 30
0.0
  0
TEXT
  5
163
330
17
100
AcDbEntity
  8
ELEC-TEXTE
100
AcDbText
 10
71222.376
 20
26868.055
 30
0.0
 40
550.0
  1
L7 - accueil
 11
71222.376
 21
26868.055
 31
0.0
100
AcDbText
  0
INSERT
  5
164
330
17
100
AcDbEntity
  8
ELEC-ECL-LUM
100
AcDbBlockReference
  2
ELEC_DOWNLIGHT
 10
72462.70749999999
 20
25390.7925
 30
0.0
  0
INSERT
  5
166
330
17
100
AcDbEntity
  8
ELEC-ECL-LUM
100
AcDbBlockReference
  2
ELEC_TL
 10
51038.9505
 20
63254.25499999999
 30
0.0
  0
INSERT
  5
168
330
17
100
AcDbEntity
  8
ELEC-ECL-LUM
100
AcDbBlockReference
  2
ELEC_TL
 10
57718.1218
 20
63254.25499999999
 30
0.0
  0
INSERT
  5
16A
330
17
100
AcDbEntity
  8
ELEC-ECL-LUM
100
AcDbBlockReference
  2
ELEC_TL
 10
51669.060999999994
 20
55948.83399999999
 30
0.0
  0
INSERT
  5
16C
330
17
100
AcDbEntity
  8
ELEC-ECL-LUM
100
AcDbBlockReference
  2
ELEC_TL
 10
58600.2765
 20
55948.83399999999
 30
0.0
  0
INSERT
  5
16E
330
17
100
AcDbEntity
  8
ELEC-ECL-LUM
100
AcDbBlockReference
  2
ELEC_TL
 10
66791.713
 20
62363.349999999984
 30
0.0
  0
TEXT
  5
170
330
17
100
AcDbEntity
  8
ELEC-TEXTE
100
AcDbText
 10
67441.713
 20
61613.349999999984
 30
0.0
 40
550.0
  1
déchocage 1
 11
67441.713
 21
61613.349999999984
 31
0.0
100
AcDbText
  0
INSERT
  5
171
330
17
100
AcDbEntity
  8
ELEC-ECL-LUM
100
AcDbBlockReference
  2
ELEC_TL
 10
66791.713
 20
56839.738999999994
 30
0.0
  0
TEXT
  5
173
330
17
100
AcDbEntity
  8
ELEC-TEXTE
100
AcDbText
 10
67441.713
 20
56089.738999999994
 30
0.0
 40
550.0
  1
déchocage 2
 11
67441.713
 21
56089.738999999994
 31
0.0
100
AcDbText
  0
INSERT
  5
174
330
17
100
AcDbEntity
  8
ELEC-ECL-LUM
100
AcDbBlockReference
  2
ELEC_TL
 10
70068.2876
 20
59690.63499999999
 30
0.0
  0
TEXT
  5
176
330
17
100
AcDbEntity
  8
ELEC-TEXTE
100
AcDbText
 10
70718.2876
 20
58940.63499999999
 30
0.0
 40
550.0
  1
box examen
 11
70718.2876
 21
58940.63499999999
 31
0.0
100
AcDbText
  0
INSERT
  5
177
330
17
100
AcDbEntity
  8
ELEC-ECL-SECU
100
AcDbBlockReference
  2
ELEC_SC
 10
59986.51959999999
 20
62363.349999999984
 30
0.0
  0
INSERT
  5
179
330
17
100
AcDbEntity
  8
ELEC-ECL-SECU
100
AcDbBlockReference
  2
ELEC_SC
 10
60868.67429999999
 20
55057.92899999999
 30
0.0
  0
INSERT
  5
17B
330
17
100
AcDbEntity
  8
ELEC-ECL-SECU
100
AcDbBlockReference
  2
ELEC_SC
 10
68808.0666
 20
61472.444999999985
 30
0.0
  0
INSERT
  5
17D
330
17
100
AcDbEntity
  8
ELEC-ECL-SECU
100
AcDbBlockReference
  2
ELEC_SC
 10
68808.0666
 20
55948.83399999999
 30
0.0
  0
TEXT
  5
17F
330
17
100
AcDbEntity
  8
ELEC-TEXTE
100
AcDbText
 10
69458.0666
 20
55198.83399999999
 30
0.0
 40
550.0
  1
ASI groupe 2
 11
69458.0666
 21
55198.83399999999
 31
0.0
100
AcDbText
  0
INSERT
  5
180
330
17
100
AcDbEntity
  8
ELEC-ECL-LUM
100
AcDbBlockReference
  2
ELEC_ETANCHE
 10
34656.0775
 20
61472.444999999985
 30
0.0
  0
TEXT
  5
182
330
17
100
AcDbEntity
  8
ELEC-TEXTE
100
AcDbText
 10
35306.0775
 20
60722.444999999985
 30
0.0
 40
550.0
  1
L4 - cuisine
 11
35306.0775
 21
60722.444999999985
 31
0.0
100
AcDbText
  0
INSERT
  5
183
330
17
100
AcDbEntity
  8
ELEC-ECL-LUM
100
AcDbBlockReference
  2
ELEC_ETANCHE
 10
25834.530499999997
 20
75726.92499999999
 30
0.0
  0
INSERT
  5
185
330
17
100
AcDbEntity
  8
ELEC-ECL-LUM
100
AcDbBlockReference
  2
ELEC_ETANCHE
 10
32135.635499999997
 20
75726.92499999999
 30
0.0
  0
INSERT
  5
187
330
17
100
AcDbEntity
  8
ELEC-ECL-LUM
100
AcDbBlockReference
  2
ELEC_ETANCHE
 10
37806.63
 20
75726.92499999999
 30
0.0
  0
TEXT
  5
189
330
17
100
AcDbEntity
  8
ELEC-TEXTE
100
AcDbText
 10
38456.63
 20
74976.92499999999
 30
0.0
 40
550.0
  1
L4 - locaux techniques
 11
38456.63
 21
74976.92499999999
 31
0.0
100
AcDbText
  0
INSERT
  5
18A
330
17
100
AcDbEntity
  8
ELEC-ECL-LUM
100
AcDbBlockReference
  2
ELEC_HUBLOT
 10
34025.967
 20
27618.055
 30
0.0
  0
TEXT
  5
18C
330
17
100
AcDbEntity
  8
ELEC-TEXTE
100
AcDbText
 10
34675.967
 20
26868.055
 30
0.0
 40
550.0
  1
L5 - vestiaires
 11
34675.967
 21
26868.055
 31
0.0
100
AcDbText
  0
INSERT
  5
18D
330
17
100
AcDbEntity
  8
ELEC-ECL-LUM
100
AcDbBlockReference
  2
ELEC_HUBLOT
 10
32261.6576
 20
49445.227499999986
 30
0.0
  0
INSERT
  5
18F
330
17
100
AcDbEntity
  8
ELEC-ECL-LUM
100
AcDbBlockReference
  2
ELEC_HUBLOT
 10
34782.0996
 20
42139.80649999999
 30
0.0
  0
TEXT
  5
191
330
17
100
AcDbEntity
  8
ELEC-TEXTE
100
AcDbText
 10
35432.0996
 20
41389.80649999999
 30
0.0
 40
550.0
  1
L5 - ESC 2
 11
35432.0996
 21
41389.80649999999
 31
0.0
100
AcDbText
  0
INSERT
  5
192
330
17
100
AcDbEntity
  8
ELEC-ECL-LUM
100
AcDbBlockReference
  2
ELEC_HUBLOT
 10
77125.52519999999
 20
42139.80649999999
 30
0.0
  0
TEXT
  5
194
330
17
100
AcDbEntity
  8
ELEC-TEXTE
100
AcDbText
 10
77775.52519999999
 20
41389.80649999999
 30
0.0
 40
550.0
  1
L5 - ESC 1
 11
77775.52519999999
 21
41389.80649999999
 31
0.0
100
AcDbText
  0
INSERT
  5
195
330
17
100
AcDbEntity
  8
ELEC-ECL-LUM
100
AcDbBlockReference
  2
ELEC_HUBLOT
 10
90231.82359999999
 20
75548.74399999999
 30
0.0
  0
TEXT
  5
197
330
17
100
AcDbEntity
  8
ELEC-TEXTE
100
AcDbText
 10
90881.82359999999
 20
74798.74399999999
 30
0.0
 40
550.0
  1
L5 - guérite
 11
90881.82359999999
 21
74798.74399999999
 31
0.0
100
AcDbText
  0
INSERT
  5
198
330
17
100
AcDbEntity
  8
ELEC-ECL-CMD
100
AcDbBlockReference
  2
ELEC_DP
 10
33017.790199999996
 20
48821.594
 30
0.0
  0
INSERT
  5
19A
330
17
100
AcDbEntity
  8
ELEC-ECL-CMD
100
AcDbBlockReference
  2
ELEC_DP
 10
35538.23219999999
 20
41427.08249999999
 30
0.0
  0
INSERT
  5
19C
330
17
100
AcDbEntity
  8
ELEC-ECL-CMD
100
AcDbBlockReference
  2
ELEC_DP
 10
33773.9228
 20
26905.331
 30
0.0
  0
INSERT
  5
19E
330
17
100
AcDbEntity
  8
ELEC-ECL-SECU
100
AcDbBlockReference
  2
ELEC_BAEH
 10
42217.4035
 20
59245.182499999995
 30
0.0
  0
INSERT
  5
1A0
330
17
100
AcDbEntity
  8
ELEC-ECL-SECU
100
AcDbBlockReference
  2
ELEC_BAEH
 10
59860.49749999999
 20
59245.182499999995
 30
0.0
  0
TEXT
  5
1A2
330
17
100
AcDbEntity
  8
ELEC-TEXTE
100
AcDbText
 10
60510.49749999999
 20
58495.182499999995
 30
0.0
 40
550.0
  1
BAES+BAEH (sommeil)
 11
60510.49749999999
 21
58495.182499999995
 31
0.0
100
AcDbText
  0
INSERT
  5
1A3
330
17
100
AcDbEntity
  8
ELEC-ECL-SECU
100
AcDbBlockReference
  2
ELEC_BAES
 10
56961.989199999996
 20
27172.6025
 30
0.0
  0
INSERT
  5
1A5
330
17
100
AcDbEntity
  8
ELEC-ECL-SECU
100
AcDbBlockReference
  2
ELEC_BAES
 10
66791.713
 20
27172.6025
 30
0.0
  0
INSERT
  5
1A7
330
17
100
AcDbEntity
  8
ELEC-ECL-SECU
100
AcDbBlockReference
  2
ELEC_BAES
 10
44737.845499999996
 20
28330.77899999999
 30
0.0
  0
INSERT
  5
1A9
330
17
100
AcDbEntity
  8
ELEC-ECL-SECU
100
AcDbBlockReference
  2
ELEC_BAES
 10
34278.0112
 20
48108.869999999995
 30
0.0
  0
INSERT
  5
1AB
330
17
100
AcDbEntity
  8
ELEC-ECL-SECU
100
AcDbBlockReference
  2
ELEC_BAES
 10
74605.0832
 20
62541.53099999999
 30
0.0
  0
INSERT
  5
1AD
330
17
100
AcDbEntity
  8
ELEC-ECL-SECU
100
AcDbBlockReference
  2
ELEC_BAES
 10
81284.2545
 20
59690.63499999999
 30
0.0
  0
TEXT
  5
1AF
330
17
100
AcDbEntity
  8
ELEC-TEXTE
100
AcDbText
 10
81934.2545
 20
58940.63499999999
 30
0.0
 40
550.0
  1
sortie urgences
 11
81934.2545
 21
58940.63499999999
 31
0.0
100
AcDbText
  0
INSERT
  5
1B0
330
17
100
AcDbEntity
  8
ELEC-ECL-SECU
100
AcDbBlockReference
  2
ELEC_BAES
 10
81284.2545
 20
33498.02799999999
 30
0.0
  0
TEXT
  5
1B2
330
17
100
AcDbEntity
  8
ELEC-TEXTE
100
AcDbText
 10
81934.2545
 20
32748.02799999999
 30
0.0
 40
550.0
  1
sortie consult.
 11
81934.2545
 21
32748.02799999999
 31
0.0
100
AcDbText
  0
INSERT
  5
1B3
330
17
100
AcDbEntity
  8
ELEC-ECL-SECU
100
AcDbBlockReference
  2
ELEC_BAES
 10
35034.1438
 20
40536.17749999999
 30
0.0
  0
INSERT
  5
1B5
330
17
100
AcDbEntity
  8
ELEC-ECL-SECU
100
AcDbBlockReference
  2
ELEC_BAES
 10
76873.481
 20
40536.17749999999
 30
0.0
  0
INSERT
  5
1B7
330
17
100
AcDbEntity
  8
ELEC-ECL-SECU
100
AcDbBlockReference
  2
ELEC_BAES
 10
70572.376
 20
26727.149999999998
 30
0.0
  0
TEXT
  5
1B9
330
17
100
AcDbEntity
  8
ELEC-TEXTE
100
AcDbText
 10
71222.376
 20
25977.149999999998
 30
0.0
 40
550.0
  1
anti-panique attente
 11
71222.376
 21
25977.149999999998
 31
0.0
100
AcDbText
  0
INSERT
  5
1BA
330
17
100
AcDbEntity
  8
ELEC-ECL-LUM
100
AcDbBlockReference
  2
ELEC_CANDELABRE
 10
37806.63
 20
80626.90249999998
 30
0.0
  0
INSERT
  5
1BC
330
17
100
AcDbEntity
  8
ELEC-ECL-LUM
100
AcDbBlockReference
  2
ELEC_CANDELABRE
 10
54819.6135
 20
80626.90249999998
 30
0.0
  0
TEXT
  5
1BE
330
17
100
AcDbEntity
  8
ELEC-TEXTE
100
AcDbText
 10
55469.6135
 20
79876.90249999998
 30
0.0
 40
550.0
  1
L9 - parking nord
 11
55469.6135
 21
79876.90249999998
 31
0.0
100
AcDbText
  0
INSERT
  5
1BF
330
17
100
AcDbEntity
  8
ELEC-ECL-LUM
100
AcDbBlockReference
  2
ELEC_CANDELABRE
 10
71832.597
 20
80626.90249999998
 30
0.0
  0
INSERT
  5
1C1
330
17
100
AcDbEntity
  8
ELEC-ECL-LUM
100
AcDbBlockReference
  2
ELEC_CANDELABRE
 10
93886.46449999999
 20
62363.349999999984
 30
0.0
  0
INSERT
  5
1C3
330
17
100
AcDbEntity
  8
ELEC-ECL-LUM
100
AcDbBlockReference
  2
ELEC_CANDELABRE
 10
93886.46449999999
 20
48554.32249999999
 30
0.0
  0
TEXT
  5
1C5
330
17
100
AcDbEntity
  8
ELEC-TEXTE
100
AcDbText
 10
94536.46449999999
 20
47804.32249999999
 30
0.0
 40
550.0
  1
L9 - parking est
 11
94536.46449999999
 21
47804.32249999999
 31
0.0
100
AcDbText
  0
INSERT
  5
1C6
330
17
100
AcDbEntity
  8
ELEC-ECL-LUM
100
AcDbBlockReference
  2
ELEC_CANDELABRE
 10
94264.5308
 20
32072.579999999994
 30
0.0
  0
INSERT
  5
1C8
330
17
100
AcDbEntity
  8
ELEC-ECL-LUM
100
AcDbBlockReference
  2
ELEC_CANDELABRE
 10
20163.536
 20
18709.004999999994
 30
0.0
  0
INSERT
  5
1CA
330
17
100
AcDbEntity
  8
ELEC-ECL-LUM
100
AcDbBlockReference
  2
ELEC_CANDELABRE
 10
51669.060999999994
 20
11581.764999999998
 30
0.0
  0
TEXT
  5
1CC
330
17
100
AcDbEntity
  8
ELEC-TEXTE
100
AcDbText
 10
52319.060999999994
 20
10831.764999999998
 30
0.0
 40
550.0
  1
L9 - parvis sud
 11
52319.060999999994
 21
10831.764999999998
 31
0.0
100
AcDbText
  0
INSERT
  5
1CD
330
17
100
AcDbEntity
  8
ELEC-ECL-LUM
100
AcDbBlockReference
  2
ELEC_PROJECTEUR
 10
83174.586
 20
59690.63499999999
 30
0.0
  0
TEXT
  5
1CF
330
17
100
AcDbEntity
  8
ELEC-TEXTE
100
AcDbText
 10
83824.586
 20
58940.63499999999
 30
0.0
 40
550.0
  1
L8 - entrée urgences
 11
83824.586
 21
58940.63499999999
 31
0.0
100
AcDbText
  0
INSERT
  5
1D0
330
17
100
AcDbEntity
  8
ELEC-ECL-LUM
100
AcDbBlockReference
  2
ELEC_PROJECTEUR
 10
83174.586
 20
33676.208999999995
 30
0.0
  0
TEXT
  5
1D2
330
17
100
AcDbEntity
  8
ELEC-TEXTE
100
AcDbText
 10
83824.586
 20
32926.208999999995
 30
0.0
 40
550.0
  1
L8 - entrée consult.
 11
83824.586
 21
32926.208999999995
 31
0.0
100
AcDbText
  0
INSERT
  5
1D3
330
17
100
AcDbEntity
  8
ELEC-ECL-LUM
100
AcDbBlockReference
  2
ELEC_PROJECTEUR
 10
79141.87879999999
 20
66639.69399999999
 30
0.0
  0
TEXT
  5
1D5
330
17
100
AcDbEntity
  8
ELEC-TEXTE
100
AcDbText
 10
79791.87879999999
 20
65889.69399999999
 30
0.0
 40
550.0
  1
L8 - SAS ambulance
 11
79791.87879999999
 21
65889.69399999999
 31
0.0
100
AcDbText
  0
INSERT
  5
1D6
330
17
100
AcDbEntity
  8
ELEC-PC-IT-ONDULE
100
AcDbBlockReference
  2
ELEC_GTL
 10
66791.713
 20
62719.711999999985
 30
0.0
  0
INSERT
  5
1D8
330
17
100
AcDbEntity
  8
ELEC-PC-IT-ONDULE
100
AcDbBlockReference
  2
ELEC_GTL
 10
66791.713
 20
56483.37699999999
 30
0.0
  0
TEXT
  5
1DA
330
17
100
AcDbEntity
  8
ELEC-TEXTE
100
AcDbText
 10
67441.713
 20
55733.37699999999
 30
0.0
 40
550.0
  1
GTL déchocage IT méd.
 11
67441.713
 21
55733.37699999999
 31
0.0
100
AcDbText
  0
INSERT
  5
1DB
330
17
100
AcDbEntity
  8
ELEC-PC-IT-ONDULE
100
AcDbBlockReference
  2
ELEC_GTL
 10
57718.1218
 20
63610.616999999984
 30
0.0
  0
TEXT
  5
1DD
330
17
100
AcDbEntity
  8
ELEC-TEXTE
100
AcDbText
 10
58368.1218
 20
62860.616999999984
 30
0.0
 40
550.0
  1
GTL soins int. adultes
 11
58368.1218
 21
62860.616999999984
 31
0.0
100
AcDbText
  0
INSERT
  5
1DE
330
17
100
AcDbEntity
  8
ELEC-PC-IT-ONDULE
100
AcDbBlockReference
  2
ELEC_GTL
 10
58600.2765
 20
55592.471999999994
 30
0.0
  0
TEXT
  5
1E0
330
17
100
AcDbEntity
  8
ELEC-TEXTE
100
AcDbText
 10
59250.2765
 20
54842.471999999994
 30
0.0
 40
550.0
  1
GTL soins int. enfants
 11
59250.2765
 21
54842.471999999994
 31
0.0
100
AcDbText
  0
INSERT
  5
1E1
330
17
100
AcDbEntity
  8
ELEC-PC-SECOURU
100
AcDbBlockReference
  2
ELEC_PCS
 10
70068.2876
 20
60046.99699999998
 30
0.0
  0
TEXT
  5
1E3
330
17
100
AcDbEntity
  8
ELEC-TEXTE
100
AcDbText
 10
70718.2876
 20
59296.99699999998
 30
0.0
 40
550.0
  1
box examen
 11
70718.2876
 21
59296.99699999998
 31
0.0
100
AcDbText
  0
INSERT
  5
1E4
330
17
100
AcDbEntity
  8
ELEC-PC-IT-ONDULE
100
AcDbBlockReference
  2
ELEC_TRI
 10
64523.3152
 20
65748.78899999999
 30
0.0
  0
INSERT
  5
1E6
330
17
100
AcDbEntity
  8
ELEC-PC-IT-ONDULE
100
AcDbBlockReference
  2
ELEC_CPI
 10
64523.3152
 20
63076.073999999986
 30
0.0
  0
TEXT
  5
1E8
330
17
100
AcDbEntity
  8
ELEC-TEXTE
100
AcDbText
 10
65173.3152
 20
62326.073999999986
 30
0.0
 40
550.0
  1
2 x TRI 8 kVA + CPI
 11
65173.3152
 21
62326.073999999986
 31
0.0
100
AcDbText
  0
INSERT
  5
1E9
330
17
100
AcDbEntity
  8
ELEC-PC-IT-ONDULE
100
AcDbBlockReference
  2
ELEC_LES
 10
68682.0445
 20
62363.349999999984
 30
0.0
  0
INSERT
  5
1EB
330
17
100
AcDbEntity
  8
ELEC-PC-IT-ONDULE
100
AcDbBlockReference
  2
ELEC_LES
 10
69060.1108
 20
56127.01499999999
 30
0.0
  0
INSERT
  5
1ED
330
17
100
AcDbEntity
  8
ELEC-PC-IT-ONDULE
100
AcDbBlockReference
  2
ELEC_LES
 10
59230.386999999995
 20
62363.349999999984
 30
0.0
  0
INSERT
  5
1EF
330
17
100
AcDbEntity
  8
ELEC-PC-IT-ONDULE
100
AcDbBlockReference
  2
ELEC_LES
 10
60112.541699999994
 20
54523.38599999999
 30
0.0
  0
TEXT
  5
1F1
330
17
100
AcDbEntity
  8
ELEC-TEXTE
100
AcDbText
 10
60762.541699999994
 20
53773.38599999999
 30
0.0
 40
550.0
  1
LES groupe 2
 11
60762.541699999994
 21
53773.38599999999
 31
0.0
100
AcDbText
  0
INSERT
  5
1F2
330
17
100
AcDbEntity
  8
ELEC-PC-NORMAL
100
AcDbBlockReference
  2
ELEC_PC
 10
73722.9285
 20
61472.444999999985
 30
0.0
  0
INSERT
  5
1F4
330
17
100
AcDbEntity
  8
ELEC-PC-IT-ONDULE
100
AcDbBlockReference
  2
ELEC_PCO
 10
75361.21579999999
 20
60403.35899999998
 30
0.0
  0
TEXT
  5
1F6
330
17
100
AcDbEntity
  8
ELEC-TEXTE
100
AcDbText
 10
76011.21579999999
 20
59653.35899999998
 30
0.0
 40
550.0
  1
accueil urgences
 11
76011.21579999999
 21
59653.35899999998
 31
0.0
100
AcDbText
  0
INSERT
  5
1F7
330
17
100
AcDbEntity
  8
ELEC-PC-NORMAL
100
AcDbBlockReference
  2
ELEC_PC
 10
79141.87879999999
 20
62719.711999999985
 30
0.0
  0
TEXT
  5
1F9
330
17
100
AcDbEntity
  8
ELEC-TEXTE
100
AcDbText
 10
79791.87879999999
 20
61969.711999999985
 30
0.0
 40
550.0
  1
SAS
 11
79791.87879999999
 21
61969.711999999985
 31
0.0
100
AcDbText
  0
INSERT
  5
1FA
330
17
100
AcDbEntity
  8
ELEC-PC-SECOURU
100
AcDbBlockReference
  2
ELEC_PCS
 10
51038.9505
 20
63610.616999999984
 30
0.0
  0
INSERT
  5
1FC
330
17
100
AcDbEntity
  8
ELEC-PC-SECOURU
100
AcDbBlockReference
  2
ELEC_PCS
 10
51669.060999999994
 20
56305.19599999999
 30
0.0
  0
TEXT
  5
1FE
330
17
100
AcDbEntity
  8
ELEC-TEXTE
100
AcDbText
 10
52319.060999999994
 20
55555.19599999999
 30
0.0
 40
550.0
  1
PC rouges têtes de lit
 11
52319.060999999994
 21
55555.19599999999
 31
0.0
100
AcDbText
  0
INSERT
  5
1FF
330
17
100
AcDbEntity
  8
ELEC-PC-NORMAL
100
AcDbBlockReference
  2
ELEC_PC
 10
51038.9505
 20
60759.72099999998
 30
0.0
  0
INSERT
  5
201
330
17
100
AcDbEntity
  8
ELEC-PC-NORMAL
100
AcDbBlockReference
  2
ELEC_PC
 10
51669.060999999994
 20
53632.48099999999
 30
0.0
  0
INSERT
  5
203
330
17
100
AcDbEntity
  8
ELEC-PC-NORMAL
100
AcDbBlockReference
  2
ELEC_PC
 10
63641.1605
 20
63254.25499999999
 30
0.0
  0
INSERT
  5
205
330
17
100
AcDbEntity
  8
ELEC-PC-IT-ONDULE
100
AcDbBlockReference
  2
ELEC_PCO
 10
64523.3152
 20
62185.16899999999
 30
0.0
  0
TEXT
  5
207
330
17
100
AcDbEntity
  8
ELEC-TEXTE
100
AcDbText
 10
65173.3152
 20
61435.16899999999
 30
0.0
 40
550.0
  1
surv. soins
 11
65173.3152
 21
61435.16899999999
 31
0.0
100
AcDbText
  0
INSERT
  5
208
330
17
100
AcDbEntity
  8
ELEC-PC-SECOURU
100
AcDbBlockReference
  2
ELEC_PCS
 10
44737.845499999996
 20
63254.25499999999
 30
0.0
  0
INSERT
  5
20A
330
17
100
AcDbEntity
  8
ELEC-PC-IT-ONDULE
100
AcDbBlockReference
  2
ELEC_PCO
 10
45620.000199999995
 20
61917.89749999999
 30
0.0
  0
TEXT
  5
20C
330
17
100
AcDbEntity
  8
ELEC-TEXTE
100
AcDbText
 10
46270.000199999995
 20
61167.89749999999
 30
0.0
 40
550.0
  1
échographie
 11
46270.000199999995
 21
61167.89749999999
 31
0.0
100
AcDbText
  0
INSERT
  5
20D
330
17
100
AcDbEntity
  8
ELEC-PC-NORMAL
100
AcDbBlockReference
  2
ELEC_PCE
 10
34656.0775
 20
61917.89749999999
 30
0.0
  0
INSERT
  5
20F
330
17
100
AcDbEntity
  8
ELEC-PC-NORMAL
100
AcDbBlockReference
  2
ELEC_PCT
 10
35538.23219999999
 20
60581.539999999986
 30
0.0
  0
TEXT
  5
211
330
17
100
AcDbEntity
  8
ELEC-TEXTE
100
AcDbText
 10
36188.23219999999
 20
59831.539999999986
 30
0.0
 40
550.0
  1
cuisine
 11
36188.23219999999
 21
59831.539999999986
 31
0.0
100
AcDbText
  0
INSERT
  5
212
330
17
100
AcDbEntity
  8
ELEC-PC-NORMAL
100
AcDbBlockReference
  2
ELEC_PCE
 10
25834.530499999997
 20
76083.28699999998
 30
0.0
  0
INSERT
  5
214
330
17
100
AcDbEntity
  8
ELEC-PC-NORMAL
100
AcDbBlockReference
  2
ELEC_PCE
 10
37806.63
 20
76083.28699999998
 30
0.0
  0
TEXT
  5
216
330
17
100
AcDbEntity
  8
ELEC-TEXTE
100
AcDbText
 10
38456.63
 20
75333.28699999998
 30
0.0
 40
550.0
  1
locaux techn.
 11
38456.63
 21
75333.28699999998
 31
0.0
100
AcDbText
  0
INSERT
  5
217
330
17
100
AcDbEntity
  8
ELEC-PC-NORMAL
100
AcDbBlockReference
  2
ELEC_SCA
 10
23944.198999999997
 20
74836.01999999999
 30
0.0
  0
TEXT
  5
219
330
17
100
AcDbEntity
  8
ELEC-TEXTE
100
AcDbText
 10
24594.198999999997
 20
74086.01999999999
 30
0.0
 40
550.0
  1
surpresseur
 11
24594.198999999997
 21
74086.01999999999
 31
0.0
100
AcDbText
  0
INSERT
  5
21A
330
17
100
AcDbEntity
  8
ELEC-PC-NORMAL
100
AcDbBlockReference
  2
ELEC_PC
 10
90231.82359999999
 20
75014.20099999999
 30
0.0
  0
TEXT
  5
21C
330
17
100
AcDbEntity
  8
ELEC-TEXTE
100
AcDbText
 10
90881.82359999999
 20
74264.20099999999
 30
0.0
 40
550.0
  1
guérite
 11
90881.82359999999
 21
74264.20099999999
 31
0.0
100
AcDbText
  0
INSERT
  5
21D
330
17
100
AcDbEntity
  8
ELEC-PC-IT-ONDULE
100
AcDbBlockReference
  2
ELEC_PCO
 10
51417.01679999999
 20
32428.941999999995
 30
0.0
  0
INSERT
  5
21F
330
17
100
AcDbEntity
  8
ELEC-PC-NORMAL
100
AcDbBlockReference
  2
ELEC_PC
 10
52929.28199999999
 20
31181.674999999992
 30
0.0
  0
INSERT
  5
221
330
17
100
AcDbEntity
  8
ELEC-PC-NORMAL
100
AcDbBlockReference
  2
ELEC_PC20
 10
54945.635599999994
 20
33141.666
 30
0.0
  0
TEXT
  5
223
330
17
100
AcDbEntity
  8
ELEC-TEXTE
100
AcDbText
 10
55595.635599999994
 20
32391.665999999997
 30
0.0
 40
550.0
  1
CF pharmacie (secouru)
 11
55595.635599999994
 21
32391.665999999997
 31
0.0
100
AcDbText
  0
INSERT
  5
224
330
17
100
AcDbEntity
  8
ELEC-PC-NORMAL
100
AcDbBlockReference
  2
ELEC_PC
 10
50156.7958
 20
26192.607
 30
0.0
  0
TEXT
  5
226
330
17
100
AcDbEntity
  8
ELEC-TEXTE
100
AcDbText
 10
50806.7958
 20
25442.607
 30
0.0
 40
550.0
  1
bur. pharmacien
 11
50806.7958
 21
25442.607
 31
0.0
100
AcDbText
  0
INSERT
  5
227
330
17
100
AcDbEntity
  8
ELEC-PC-IT-ONDULE
100
AcDbBlockReference
  2
ELEC_PCO
 10
40075.027799999996
 20
24410.797
 30
0.0
  0
INSERT
  5
229
330
17
100
AcDbEntity
  8
ELEC-PC-IT-ONDULE
100
AcDbBlockReference
  2
ELEC_PCO
 10
43855.6908
 20
24410.797
 30
0.0
  0
INSERT
  5
22B
330
17
100
AcDbEntity
  8
ELEC-PC-IT-ONDULE
100
AcDbBlockReference
  2
ELEC_PCO
 10
47636.3538
 20
24410.797
 30
0.0
  0
TEXT
  5
22D
330
17
100
AcDbEntity
  8
ELEC-TEXTE
100
AcDbText
 10
48286.3538
 20
23660.797
 30
0.0
 40
550.0
  1
bureaux : 3 PC + PCO/poste
 11
48286.3538
 21
23660.797
 31
0.0
100
AcDbText
  0
INSERT
  5
22E
330
17
100
AcDbEntity
  8
ELEC-PC-NORMAL
100
AcDbBlockReference
  2
ELEC_PC
 10
42217.4035
 20
31359.855999999992
 30
0.0
  0
INSERT
  5
230
330
17
100
AcDbEntity
  8
ELEC-PC-IT-ONDULE
100
AcDbBlockReference
  2
ELEC_PCO
 10
43477.62449999999
 20
30290.769999999993
 30
0.0
  0
TEXT
  5
232
330
17
100
AcDbEntity
  8
ELEC-TEXTE
100
AcDbText
 10
44127.62449999999
 20
29540.769999999993
 30
0.0
 40
550.0
  1
réunion
 11
44127.62449999999
 21
29540.769999999993
 31
0.0
100
AcDbText
  0
INSERT
  5
233
330
17
100
AcDbEntity
  8
ELEC-PC-NORMAL
100
AcDbBlockReference
  2
ELEC_PC
 10
34025.967
 20
28063.507499999992
 30
0.0
  0
TEXT
  5
235
330
17
100
AcDbEntity
  8
ELEC-TEXTE
100
AcDbText
 10
34675.967
 20
27313.507499999992
 30
0.0
 40
550.0
  1
vestiaires
 11
34675.967
 21
27313.507499999992
 31
0.0
100
AcDbText
  0
INSERT
  5
236
330
17
100
AcDbEntity
  8
ELEC-PC-SECOURU
100
AcDbBlockReference
  2
ELEC_PCS
 10
52299.1715
 20
23608.9825
 30
0.0
  0
INSERT
  5
238
330
17
100
AcDbEntity
  8
ELEC-PC-SECOURU
100
AcDbBlockReference
  2
ELEC_PCS
 10
57340.055499999995
 20
23608.9825
 30
0.0
  0
INSERT
  5
23A
330
17
100
AcDbEntity
  8
ELEC-PC-SECOURU
100
AcDbBlockReference
  2
ELEC_PCS
 10
62380.93949999999
 20
23608.9825
 30
0.0
  0
INSERT
  5
23C
330
17
100
AcDbEntity
  8
ELEC-PC-SECOURU
100
AcDbBlockReference
  2
ELEC_PCS
 10
67421.8235
 20
23608.9825
 30
0.0
  0
INSERT
  5
23E
330
17
100
AcDbEntity
  8
ELEC-PC-IT-ONDULE
100
AcDbBlockReference
  2
ELEC_PCO
 10
53559.392499999994
 20
22094.443999999996
 30
0.0
  0
INSERT
  5
240
330
17
100
AcDbEntity
  8
ELEC-PC-IT-ONDULE
100
AcDbBlockReference
  2
ELEC_PCO
 10
58600.2765
 20
22094.443999999996
 30
0.0
  0
INSERT
  5
242
330
17
100
AcDbEntity
  8
ELEC-PC-IT-ONDULE
100
AcDbBlockReference
  2
ELEC_PCO
 10
63641.1605
 20
22094.443999999996
 30
0.0
  0
INSERT
  5
244
330
17
100
AcDbEntity
  8
ELEC-PC-IT-ONDULE
100
AcDbBlockReference
  2
ELEC_PCO
 10
68682.0445
 20
22094.443999999996
 30
0.0
  0
TEXT
  5
246
330
17
100
AcDbEntity
  8
ELEC-TEXTE
100
AcDbText
 10
69332.0445
 20
21344.443999999996
 30
0.0
 40
550.0
  1
consult. : 6 PC dont 2 PCS + 2 PCO
 11
69332.0445
 21
21344.443999999996
 31
0.0
100
AcDbText
  0
INSERT
  5
247
330
17
100
AcDbEntity
  8
ELEC-PC-IT-ONDULE
100
AcDbBlockReference
  2
ELEC_PCO
 10
70572.376
 20
28063.507499999992
 30
0.0
  0
TEXT
  5
249
330
17
100
AcDbEntity
  8
ELEC-TEXTE
100
AcDbText
 10
71222.376
 20
27313.507499999992
 30
0.0
 40
550.0
  1
affichage
 11
71222.376
 21
27313.507499999992
 31
0.0
100
AcDbText
  0
INSERT
  5
24A
330
17
100
AcDbEntity
  8
ELEC-PC-NORMAL
100
AcDbBlockReference
  2
ELEC_PC
 10
69060.1108
 20
30112.588999999993
 30
0.0
  0
INSERT
  5
24C
330
17
100
AcDbEntity
  8
ELEC-PC-NORMAL
100
AcDbBlockReference
  2
ELEC_PC
 10
73344.86219999999
 20
26727.149999999998
 30
0.0
  0
INSERT
  5
24E
330
17
100
AcDbEntity
  8
ELEC-PC-NORMAL
100
AcDbBlockReference
  2
ELEC_PC
 10
45367.956
 20
58621.548999999985
 30
0.0
  0
INSERT
  5
250
330
17
100
AcDbEntity
  8
ELEC-PC-NORMAL
100
AcDbBlockReference
  2
ELEC_PC
 10
57970.166
 20
58621.548999999985
 30
0.0
  0
TEXT
  5
252
330
17
100
AcDbEntity
  8
ELEC-TEXTE
100
AcDbText
 10
58620.166
 20
57871.548999999985
 30
0.0
 40
550.0
  1
PC entretien circul.
 11
58620.166
 21
57871.548999999985
 31
0.0
100
AcDbText
  0
INSERT
  5
253
330
17
100
AcDbEntity
  8
ELEC-PC-NORMAL
100
AcDbBlockReference
  2
ELEC_PC
 10
55449.723999999995
 20
27618.055
 30
0.0
  0
INSERT
  5
255
330
17
100
AcDbEntity
  8
ELEC-PC-NORMAL
100
AcDbBlockReference
  2
ELEC_PC
 10
34278.0112
 20
47217.965
 30
0.0
  0
INSERT
  5
257
330
17
100
AcDbEntity
  8
ELEC-TD
100
AcDbBlockReference
  2
ELEC_TD
 10
36042.32059999999
 20
75548.74399999999
 30
0.0
  0
TEXT
  5
259
330
17
100
AcDbEntity
  8
ELEC-TEXTE
100
AcDbText
 10
36692.32059999999
 20
74798.74399999999
 30
0.0
 40
550.0
  1
TGBT+GE
 11
36692.32059999999
 21
74798.74399999999
 31
0.0
100
AcDbText
  0
INSERT
  5
25A
330
17
100
AcDbEntity
  8
ELEC-TD
100
AcDbBlockReference
  2
ELEC_TD
 10
41335.2488
 20
75548.74399999999
 30
0.0
  0
TEXT
  5
25C
330
17
100
AcDbEntity
  8
ELEC-TEXTE
100
AcDbText
 10
41985.2488
 20
74798.74399999999
 30
0.0
 40
550.0
  1
TR 630 kVA
 11
41985.2488
 21
74798.74399999999
 31
0.0
100
AcDbText
  0
INSERT
  5
25D
330
17
100
AcDbEntity
  8
ELEC-TD
100
AcDbBlockReference
  2
ELEC_TD
 10
33017.790199999996
 20
39912.54399999999
 30
0.0
  0
TEXT
  5
25F
330
17
100
AcDbEntity
  8
ELEC-TEXTE
100
AcDbText
 10
33667.790199999996
 20
39162.54399999999
 30
0.0
 40
550.0
  1
TD RDC
 11
33667.790199999996
 21
39162.54399999999
 31
0.0
100
AcDbText
  0
INSERT
  5
260
330
17
100
AcDbEntity
  8
ELEC-TD
100
AcDbBlockReference
  2
ELEC_TD
 10
64775.359399999994
 20
60759.72099999998
 30
0.0
  0
TEXT
  5
262
330
17
100
AcDbEntity
  8
ELEC-TEXTE
100
AcDbText
 10
65425.359399999994
 20
60009.72099999998
 30
0.0
 40
550.0
  1
TD URG (secouru)
 11
65425.359399999994
 21
60009.72099999998
 31
0.0
100
AcDbText
  0
INSERT
  5
263
330
17
100
AcDbEntity
  8
ELEC-TD
100
AcDbBlockReference
  2
ELEC_TD
 10
75613.26
 20
30290.769999999993
 30
0.0
  0
TEXT
  5
265
330
17
100
AcDbEntity
  8
ELEC-TEXTE
100
AcDbText
 10
76263.26
 20
29540.769999999993
 30
0.0
 40
550.0
  1
TD CONS
 11
76263.26
 21
29540.769999999993
 31
0.0
100
AcDbText
  0
TEXT
  5
266
330
17
100
AcDbEntity
  8
ELEC-TEXTE
100
AcDbText
 10
69942.2655
 20
67263.32749999998
 30
0.0
 40
900.0
  1
ZONE URGENCES - GROUPE 2 - IT MÉDICAL
 11
69942.2655
 21
67263.32749999998
 31
0.0
100
AcDbText
  0
TEXT
  5
267
330
17
100
AcDbEntity
  8
ELEC-TEXTE
100
AcDbText
 10
20163.536
 20
79735.99749999998
 30
0.0
 40
900.0
  1
LOCAUX TECHNIQUES : TGBT - GE - TRANSFO
 11
20163.536
 21
79735.99749999998
 31
0.0
100
AcDbText
  0
TEXT
  5
268
330
17
100
AcDbEntity
  8
ELEC-LEGENDE
100
AcDbText
 10
129022.09999999999
 20
85090.49999999999
 30
0.0
 40
1600.0
  1
LÉGENDE
 11
129022.09999999999
 21
85090.49999999999
 31
0.0
100
AcDbText
  0
TEXT
  5
269
330
17
100
AcDbEntity
  8
ELEC-LEGENDE
100
AcDbText
 10
129022.09999999999
 20
81890.49999999999
 30
0.0
 40
1100.0
  1
ÉCLAIRAGE
 11
129022.09999999999
 21
81890.49999999999
 31
0.0
100
AcDbText
  0
INSERT
  5
26A
330
17
100
AcDbEntity
  8
ELEC-ECL-LUM
100
AcDbBlockReference
  2
ELEC_PAVE
 10
130222.09999999999
 20
79740.49999999999
 30
0.0
  0
TEXT
  5
26C
330
17
100
AcDbEntity
  8
ELEC-LEGENDE
100
AcDbText
 10
132222.09999999998
 20
79490.49999999999
 30
0.0
 40
650.0
  1
L1 - pavé LED 600x600 UGR<19 (IP54 zones de soins / labos)
 11
132222.09999999998
 21
79490.49999999999
 31
0.0
100
AcDbText
  0
INSERT
  5
26D
330
17
100
AcDbEntity
  8
ELEC-ECL-LUM
100
AcDbBlockReference
  2
ELEC_DOWNLIGHT
 10
130222.09999999999
 20
77640.49999999999
 30
0.0
  0
TEXT
  5
26F
330
17
100
AcDbEntity
  8
ELEC-LEGENDE
100
AcDbText
 10
132222.09999999998
 20
77390.49999999999
 30
0.0
 40
650.0
  1
L2 - downlight LED - circulations, accueils
 11
132222.09999999998
 21
77390.49999999999
 31
0.0
100
AcDbText
  0
INSERT
  5
270
330
17
100
AcDbEntity
  8
ELEC-ECL-LUM
100
AcDbBlockReference
  2
ELEC_REGLETTE
 10
130222.09999999999
 20
75540.49999999999
 30
0.0
  0
TEXT
  5
272
330
17
100
AcDbEntity
  8
ELEC-LEGENDE
100
AcDbText
 10
132222.09999999998
 20
75290.49999999999
 30
0.0
 40
650.0
  1
L3 - réglette LED - locaux supports / stockage
 11
132222.09999999998
 21
75290.49999999999
 31
0.0
100
AcDbText
  0
INSERT
  5
273
330
17
100
AcDbEntity
  8
ELEC-ECL-LUM
100
AcDbBlockReference
  2
ELEC_ETANCHE
 10
130222.09999999999
 20
73440.49999999999
 30
0.0
  0
TEXT
  5
275
330
17
100
AcDbEntity
  8
ELEC-LEGENDE
100
AcDbText
 10
132222.09999999998
 20
73190.49999999999
 30
0.0
 40
650.0
  1
L4 - réglette LED étanche IP65 - cuisine, locaux techniques
 11
132222.09999999998
 21
73190.49999999999
 31
0.0
100
AcDbText
  0
INSERT
  5
276
330
17
100
AcDbEntity
  8
ELEC-ECL-LUM
100
AcDbBlockReference
  2
ELEC_HUBLOT
 10
130222.09999999999
 20
71340.49999999999
 30
0.0
  0
TEXT
  5
278
330
17
100
AcDbEntity
  8
ELEC-LEGENDE
100
AcDbText
 10
132222.09999999998
 20
71090.49999999999
 30
0.0
 40
650.0
  1
L5 - hublot LED IP44 - sanitaires, escaliers, balcons
 11
132222.09999999998
 21
71090.49999999999
 31
0.0
100
AcDbText
  0
INSERT
  5
279
330
17
100
AcDbEntity
  8
ELEC-ECL-LUM
100
AcDbBlockReference
  2
ELEC_SUSPENSION
 10
130222.09999999999
 20
69240.49999999999
 30
0.0
  0
TEXT
  5
27B
330
17
100
AcDbEntity
  8
ELEC-LEGENDE
100
AcDbText
 10
132222.09999999998
 20
68990.49999999999
 30
0.0
 40
650.0
  1
L7 - suspension décorative - accueil
 11
132222.09999999998
 21
68990.49999999999
 31
0.0
100
AcDbText
  0
INSERT
  5
27C
330
17
100
AcDbEntity
  8
ELEC-ECL-LUM
100
AcDbBlockReference
  2
ELEC_PROJECTEUR
 10
130222.09999999999
 20
67140.49999999999
 30
0.0
  0
TEXT
  5
27E
330
17
100
AcDbEntity
  8
ELEC-LEGENDE
100
AcDbText
 10
132222.09999999998
 20
66890.49999999999
 30
0.0
 40
650.0
  1
L8 - projecteur LED ext. IP66 - entrées, SAS ambulance
 11
132222.09999999998
 21
66890.49999999999
 31
0.0
100
AcDbText
  0
INSERT
  5
27F
330
17
100
AcDbEntity
  8
ELEC-ECL-LUM
100
AcDbBlockReference
  2
ELEC_CANDELABRE
 10
130222.09999999999
 20
65040.499999999985
 30
0.0
  0
TEXT
  5
281
330
17
100
AcDbEntity
  8
ELEC-LEGENDE
100
AcDbText
 10
132222.09999999998
 20
64790.499999999985
 30
0.0
 40
650.0
  1
L9 - candélabre LED 4-5 m IP66 (amb. saline) - parkings, parvis
 11
132222.09999999998
 21
64790.499999999985
 31
0.0
100
AcDbText
  0
INSERT
  5
282
330
17
100
AcDbEntity
  8
ELEC-ECL-LUM
100
AcDbBlockReference
  2
ELEC_TL
 10
130222.09999999999
 20
62940.499999999985
 30
0.0
  0
TEXT
  5
284
330
17
100
AcDbEntity
  8
ELEC-LEGENDE
100
AcDbText
 10
132222.09999999998
 20
62690.499999999985
 30
0.0
 40
650.0
  1
TL - bandeau tête de lit : général + lecture + examen + veille
 11
132222.09999999998
 21
62690.499999999985
 31
0.0
100
AcDbText
  0
INSERT
  5
285
330
17
100
AcDbEntity
  8
ELEC-ECL-SECU
100
AcDbBlockReference
  2
ELEC_SC
 10
130222.09999999999
 20
60840.499999999985
 30
0.0
  0
TEXT
  5
287
330
17
100
AcDbEntity
  8
ELEC-LEGENDE
100
AcDbText
 10
132222.09999999998
 20
60590.499999999985
 30
0.0
 40
650.0
  1
SC - luminaire repris sur ASI (locaux groupe 2)
 11
132222.09999999998
 21
60590.499999999985
 31
0.0
100
AcDbText
  0
INSERT
  5
288
330
17
100
AcDbEntity
  8
ELEC-ECL-SECU
100
AcDbBlockReference
  2
ELEC_BAES
 10
130222.09999999999
 20
58740.499999999985
 30
0.0
  0
TEXT
  5
28A
330
17
100
AcDbEntity
  8
ELEC-LEGENDE
100
AcDbText
 10
132222.09999999998
 20
58490.499999999985
 30
0.0
 40
650.0
  1
BAES évacuation 45 lm SATI
 11
132222.09999999998
 21
58490.499999999985
 31
0.0
100
AcDbText
  0
INSERT
  5
28B
330
17
100
AcDbEntity
  8
ELEC-ECL-SECU
100
AcDbBlockReference
  2
ELEC_BAEH
 10
130222.09999999999
 20
56640.499999999985
 30
0.0
  0
TEXT
  5
28D
330
17
100
AcDbEntity
  8
ELEC-LEGENDE
100
AcDbText
 10
132222.09999999998
 20
56390.499999999985
 30
0.0
 40
650.0
  1
BAES+BAEH combiné (zones à sommeil) 8 lm / 5 h
 11
132222.09999999998
 21
56390.499999999985
 31
0.0
100
AcDbText
  0
INSERT
  5
28E
330
17
100
AcDbEntity
  8
ELEC-ECL-CMD
100
AcDbBlockReference
  2
ELEC_DP
 10
130222.09999999999
 20
54540.499999999985
 30
0.0
  0
TEXT
  5
290
330
17
100
AcDbEntity
  8
ELEC-LEGENDE
100
AcDbText
 10
132222.09999999998
 20
54290.499999999985
 30
0.0
 40
650.0
  1
DP - détecteur de présence
 11
132222.09999999998
 21
54290.499999999985
 31
0.0
100
AcDbText
  0
TEXT
  5
291
330
17
100
AcDbEntity
  8
ELEC-LEGENDE
100
AcDbText
 10
129022.09999999999
 20
50990.499999999985
 30
0.0
 40
1100.0
  1
PRISES DE COURANT / FORCES
 11
129022.09999999999
 21
50990.499999999985
 31
0.0
100
AcDbText
  0
INSERT
  5
292
330
17
100
AcDbEntity
  8
ELEC-PC-NORMAL
100
AcDbBlockReference
  2
ELEC_PC
 10
130222.09999999999
 20
48840.499999999985
 30
0.0
  0
TEXT
  5
294
330
17
100
AcDbEntity
  8
ELEC-LEGENDE
100
AcDbText
 10
132222.09999999998
 20
48590.499999999985
 30
0.0
 40
650.0
  1
PC 2P+T 16 A - réseau NORMAL (blanc), h=0,30 m sauf soins 0,90-1,20 m
 11
132222.09999999998
 21
48590.499999999985
 31
0.0
100
AcDbText
  0
INSERT
  5
295
330
17
100
AcDbEntity
  8
ELEC-PC-SECOURU
100
AcDbBlockReference
  2
ELEC_PCS
 10
130222.09999999999
 20
46740.499999999985
 30
0.0
  0
TEXT
  5
297
330
17
100
AcDbEntity
  8
ELEC-LEGENDE
100
AcDbText
 10
132222.09999999998
 20
46490.499999999985
 30
0.0
 40
650.0
  1
PCS 2P+T 16 A - réseau SECOURU GE (rouge)
 11
132222.09999999998
 21
46490.499999999985
 31
0.0
100
AcDbText
  0
INSERT
  5
298
330
17
100
AcDbEntity
  8
ELEC-PC-IT-ONDULE
100
AcDbBlockReference
  2
ELEC_PCO
 10
130222.09999999999
 20
44640.499999999985
 30
0.0
  0
TEXT
  5
29A
330
17
100
AcDbEntity
  8
ELEC-LEGENDE
100
AcDbText
 10
132222.09999999998
 20
44390.499999999985
 30
0.0
 40
650.0
  1
PCO 2P+T 16 A - réseau ONDULÉ ASI / détrompé (vert)
 11
132222.09999999998
 21
44390.499999999985
 31
0.0
100
AcDbText
  0
INSERT
  5
29B
330
17
100
AcDbEntity
  8
ELEC-PC-NORMAL
100
AcDbBlockReference
  2
ELEC_PCE
 10
130222.09999999999
 20
42540.499999999985
 30
0.0
  0
TEXT
  5
29D
330
17
100
AcDbEntity
  8
ELEC-LEGENDE
100
AcDbText
 10
132222.09999999998
 20
42290.499999999985
 30
0.0
 40
650.0
  1
PCE 2P+T 16 A étanche IP55
 11
132222.09999999998
 21
42290.499999999985
 31
0.0
100
AcDbText
  0
INSERT
  5
29E
330
17
100
AcDbEntity
  8
ELEC-PC-NORMAL
100
AcDbBlockReference
  2
ELEC_PC20
 10
130222.09999999999
 20
40440.499999999985
 30
0.0
  0
TEXT
  5
2A0
330
17
100
AcDbEntity
  8
ELEC-LEGENDE
100
AcDbText
 10
132222.09999999998
 20
40190.499999999985
 30
0.0
 40
650.0
  1
Circuit spécialisé 20 A (congél. -80 °C, chambre froide CF)
 11
132222.09999999998
 21
40190.499999999985
 31
0.0
100
AcDbText
  0
INSERT
  5
2A1
330
17
100
AcDbEntity
  8
ELEC-PC-NORMAL
100
AcDbBlockReference
  2
ELEC_PCT
 10
130222.09999999999
 20
38340.499999999985
 30
0.0
  0
TEXT
  5
2A3
330
17
100
AcDbEntity
  8
ELEC-LEGENDE
100
AcDbText
 10
132222.09999999998
 20
38090.499999999985
 30
0.0
 40
650.0
  1
Prise 3P+N+T 16/32 A (NF EN 60309)
 11
132222.09999999998
 21
38090.499999999985
 31
0.0
100
AcDbText
  0
INSERT
  5
2A4
330
17
100
AcDbEntity
  8
ELEC-PC-NORMAL
100
AcDbBlockReference
  2
ELEC_SCA
 10
130222.09999999999
 20
36240.499999999985
 30
0.0
  0
TEXT
  5
2A6
330
17
100
AcDbEntity
  8
ELEC-LEGENDE
100
AcDbText
 10
132222.09999999998
 20
35990.499999999985
 30
0.0
 40
650.0
  1
Sortie de câble / attente force (CVC, équipt fixe)
 11
132222.09999999998
 21
35990.499999999985
 31
0.0
100
AcDbText
  0
INSERT
  5
2A7
330
17
100
AcDbEntity
  8
ELEC-PC-IT-ONDULE
100
AcDbBlockReference
  2
ELEC_GTL
 10
130222.09999999999
 20
34140.499999999985
 30
0.0
  0
TEXT
  5
2A9
330
17
100
AcDbEntity
  8
ELEC-LEGENDE
100
AcDbText
 10
132222.09999999998
 20
33890.499999999985
 30
0.0
 40
650.0
  1
Gaine tête de lit groupe 2 : 8-12 PC sur 2 circuits IT médical
 11
132222.09999999998
 21
33890.499999999985
 31
0.0
100
AcDbText
  0
INSERT
  5
2AA
330
17
100
AcDbEntity
  8
ELEC-PC-IT-ONDULE
100
AcDbBlockReference
  2
ELEC_TRI
 10
130222.09999999999
 20
32040.499999999985
 30
0.0
  0
TEXT
  5
2AC
330
17
100
AcDbEntity
  8
ELEC-LEGENDE
100
AcDbText
 10
132222.09999999998
 20
31790.499999999985
 30
0.0
 40
650.0
  1
Transformateur d'isolement médical 230/230 V
 11
132222.09999999998
 21
31790.499999999985
 31
0.0
100
AcDbText
  0
INSERT
  5
2AD
330
17
100
AcDbEntity
  8
ELEC-PC-IT-ONDULE
100
AcDbBlockReference
  2
ELEC_CPI
 10
130222.09999999999
 20
29940.499999999985
 30
0.0
  0
TEXT
  5
2AF
330
17
100
AcDbEntity
  8
ELEC-LEGENDE
100
AcDbText
 10
132222.09999999998
 20
29690.499999999985
 30
0.0
 40
650.0
  1
CPI - contrôleur permanent d'isolement, report poste de soins
 11
132222.09999999998
 21
29690.499999999985
 31
0.0
100
AcDbText
  0
INSERT
  5
2B0
330
17
100
AcDbEntity
  8
ELEC-PC-IT-ONDULE
100
AcDbBlockReference
  2
ELEC_LES
 10
130222.09999999999
 20
27840.499999999985
 30
0.0
  0
TEXT
  5
2B2
330
17
100
AcDbEntity
  8
ELEC-LEGENDE
100
AcDbText
 10
132222.09999999998
 20
27590.499999999985
 30
0.0
 40
650.0
  1
LES - liaison équipotentielle supplémentaire
 11
132222.09999999998
 21
27590.499999999985
 31
0.0
100
AcDbText
  0
INSERT
  5
2B3
330
17
100
AcDbEntity
  8
ELEC-TD
100
AcDbBlockReference
  2
ELEC_TD
 10
130222.09999999999
 20
25740.499999999985
 30
0.0
  0
TEXT
  5
2B5
330
17
100
AcDbEntity
  8
ELEC-LEGENDE
100
AcDbText
 10
132222.09999999998
 20
25490.499999999985
 30
0.0
 40
650.0
  1
Tableau électrique (TGBT / divisionnaire), réserve 30 %
 11
132222.09999999998
 21
25490.499999999985
 31
0.0
100
AcDbText
  0
TEXT
  5
2B6
330
17
100
AcDbEntity
  8
ELEC-CARTOUCHE
100
AcDbText
 10
129022.09999999999
 20
9000.0
 30
0.0
 40
1100.0
  1
CENTRE DE DRÉPANOCYTOSE - COTONOU (BÉNIN)
 11
129022.09999999999
 21
9000.0
 31
0.0
100
AcDbText
  0
TEXT
  5
2B7
330
17
100
AcDbEntity
  8
ELEC-CARTOUCHE
100
AcDbText
 10
129022.09999999999
 20
7300.0
 30
0.0
 40
750.0
  1
RDC - éclairage + prises (planches E-01/E-02)
 11
129022.09999999999
 21
7300.0
 31
0.0
100
AcDbText
  0
TEXT
  5
2B8
330
17
100
AcDbEntity
  8
ELEC-CARTOUCHE
100
AcDbText
 10
129022.09999999999
 20
5600.0
 30
0.0
 40
750.0
  1
Lot électricité - plan de principe APS - juin 2026 - ind. A
 11
129022.09999999999
 21
5600.0
 31
0.0
100
AcDbText
  0
TEXT
  5
2B9
330
17
100
AcDbEntity
  8
ELEC-CARTOUCHE
100
AcDbText
 10
129022.09999999999
 20
3900.0
 30
0.0
 40
750.0
  1
Unités : mm (1:1) - vérif. échelle : entraxe des files = 8000 mm
 11
129022.09999999999
 21
3900.0
 31
0.0
100
AcDbText
  0
TEXT
  5
2BA
330
17
100
AcDbEntity
  8
ELEC-CARTOUCHE
100
AcDbText
 10
129022.09999999999
 20
2200.0
 30
0.0
 40
750.0
  1
Calques ELEC-ECL-* / ELEC-PC-* activables séparément
 11
129022.09999999999
 21
2200.0
 31
0.0
100
AcDbText
  0
TEXT
  5
2BB
330
17
100
AcDbEntity
  8
ELEC-CARTOUCHE
100
AcDbText
 10
129022.09999999999
 20
500.0
 30
0.0
 40
750.0
  1
Réf. NF C 15-100, NF C 15-211 / CEI 60364-7-710, NF EN 12464-1, NF EN 1838
 11
129022.09999999999
 21
500.0
 31
0.0
100
AcDbText
  0
ENDSEC
  0
SECTION
  2
OBJECTS
  0
DICTIONARY
  5
A
330
0
100
AcDbDictionary
281
1
  3
ACAD_COLOR
350
B
  3
ACAD_GROUP
350
C
  3
ACAD_LAYOUT
350
D
  3
ACAD_MATERIAL
350
E
  3
ACAD_MLEADERSTYLE
350
F
  3
ACAD_MLINESTYLE
350
10
  3
ACAD_PLOTSETTINGS
350
11
  3
ACAD_PLOTSTYLENAME
350
12
  3
ACAD_SCALELIST
350
14
  3
ACAD_TABLESTYLE
350
15
  3
ACAD_VISUALSTYLE
350
16
  3
EZDXF_META
350
2D
  3
ACAD_IMAGE_VARS
350
12E
  3
ACAD_IMAGE_DICT
350
12F
  0
DICTIONARY
  5
B
330
A
100
AcDbDictionary
281
1
  0
DICTIONARY
  5
C
330
A
100
AcDbDictionary
281
1
  0
DICTIONARY
  5
D
330
A
100
AcDbDictionary
281
1
  3
Model
350
1A
  3
Layout1
350
1E
  0
DICTIONARY
  5
E
330
A
100
AcDbDictionary
281
1
  3
ByBlock
350
1F
  3
ByLayer
350
20
  3
Global
350
21
  0
DICTIONARY
  5
F
330
A
100
AcDbDictionary
281
1
  3
Standard
350
2C
  0
DICTIONARY
  5
10
330
A
100
AcDbDictionary
281
1
  3
Standard
350
22
  0
DICTIONARY
  5
11
330
A
100
AcDbDictionary
281
1
  0
ACDBDICTIONARYWDFLT
  5
12
330
A
100
AcDbDictionary
281
1
  3
Normal
350
13
100
AcDbDictionaryWithDefault
340
13
  0
ACDBPLACEHOLDER
  5
13
330
12
  0
DICTIONARY
  5
14
330
A
100
AcDbDictionary
281
1
  0
DICTIONARY
  5
15
330
A
100
AcDbDictionary
281
1
  0
DICTIONARY
  5
16
330
A
100
AcDbDictionary
281
1
  3
2dWireframe
350
5A
  3
Basic
350
5B
  3
Brighten
350
5C
  3
ColorChange
350
5D
  3
Conceptual
350
5E
  3
Dim
350
5F
  3
EdgeColorOff
350
60
  3
Facepattern
350
61
  3
Flat
350
62
  3
FlatWithEdges
350
63
  3
Gouraud
350
64
  3
GouraudWithEdges
350
65
  3
Hidden
350
66
  3
JitterOff
350
67
  3
Linepattern
350
68
  3
Modeling
350
69
  3
OverhangOff
350
6A
  3
Realistic
350
6B
  3
Shaded
350
6C
  3
Shaded with edges
350
6D
  3
Shades of Gray
350
6E
  3
Sketchy
350
6F
  3
Thicken
350
70
  3
Wireframe
350
71
  3
X-Ray
350
72
  0
LAYOUT
  5
1A
330
D
100
AcDbPlotSettings
  1

  4
A3
  6

 40
7.5
 41
20.0
 42
7.5
 43
20.0
 44
420.0
 45
297.0
 46
0.0
 47
0.0
 48
0.0
 49
0.0
140
0.0
141
0.0
142
1.0
143
1.0
 70
1024
 72
1
 73
0
 74
5
  7

 75
16
 76
0
 77
2
 78
300
147
1.0
148
0.0
149
0.0
100
AcDbLayout
  1
Model
 70
1
 71
0
 10
0.0
 20
0.0
 11
420.0
 21
297.0
 12
0.0
 22
0.0
 32
0.0
 14
1e+20
 24
1e+20
 34
1e+20
 15
-1e+20
 25
-1e+20
 35
-1e+20
146
0.0
 13
0.0
 23
0.0
 33
0.0
 16
1.0
 26
0.0
 36
0.0
 17
0.0
 27
1.0
 37
0.0
 76
1
330
17
  0
LAYOUT
  5
1E
330
D
100
AcDbPlotSettings
  1

  4
A3
  6

 40
7.5
 41
20.0
 42
7.5
 43
20.0
 44
420.0
 45
297.0
 46
0.0
 47
0.0
 48
0.0
 49
0.0
140
0.0
141
0.0
142
1.0
143
1.0
 70
0
 72
1
 73
0
 74
5
  7

 75
16
 76
0
 77
2
 78
300
147
1.0
148
0.0
149
0.0
100
AcDbLayout
  1
Layout1
 70
1
 71
1
 10
0.0
 20
0.0
 11
420.0
 21
297.0
 12
0.0
 22
0.0
 32
0.0
 14
1e+20
 24
1e+20
 34
1e+20
 15
-1e+20
 25
-1e+20
 35
-1e+20
146
0.0
 13
0.0
 23
0.0
 33
0.0
 16
1.0
 26
0.0
 36
0.0
 17
0.0
 27
1.0
 37
0.0
 76
1
330
1B
  0
MATERIAL
  5
1F
102
{ACAD_REACTORS
330
E
102
}
330
E
100
AcDbMaterial
  1
ByBlock
  2

 70
0
 40
1.0
 71
1
 41
1.0
 91
-1023410177
 42
1.0
 72
1
  3

 73
1
 74
1
 75
1
 44
0.5
 73
0
 45
1.0
 46
1.0
 77
1
  4

 78
1
 79
1
170
1
 48
1.0
171
1
  6

172
1
173
1
174
1
140
1.0
141
1.0
175
1
  7

176
1
177
1
178
1
143
1.0
179
1
  8

270
1
271
1
272
1
145
1.0
146
1.0
273
1
  9

274
1
275
1
276
1
 42
1.0
 72
1
  3

 73
1
 74
1
 75
1
 94
63
  0
MATERIAL
  5
20
102
{ACAD_REACTORS
330
E
102
}
330
E
100
AcDbMaterial
  1
ByLayer
  2

 70
0
 40
1.0
 71
1
 41
1.0
 91
-1023410177
 42
1.0
 72
1
  3

 73
1
 74
1
 75
1
 44
0.5
 73
0
 45
1.0
 46
1.0
 77
1
  4

 78
1
 79
1
170
1
 48
1.0
171
1
  6

172
1
173
1
174
1
140
1.0
141
1.0
175
1
  7

176
1
177
1
178
1
143
1.0
179
1
  8

270
1
271
1
272
1
145
1.0
146
1.0
273
1
  9

274
1
275
1
276
1
 42
1.0
 72
1
  3

 73
1
 74
1
 75
1
 94
63
  0
MATERIAL
  5
21
102
{ACAD_REACTORS
330
E
102
}
330
E
100
AcDbMaterial
  1
Global
  2

 70
0
 40
1.0
 71
1
 41
1.0
 91
-1023410177
 42
1.0
 72
1
  3

 73
1
 74
1
 75
1
 44
0.5
 73
0
 45
1.0
 46
1.0
 77
1
  4

 78
1
 79
1
170
1
 48
1.0
171
1
  6

172
1
173
1
174
1
140
1.0
141
1.0
175
1
  7

176
1
177
1
178
1
143
1.0
179
1
  8

270
1
271
1
272
1
145
1.0
146
1.0
273
1
  9

274
1
275
1
276
1
 42
1.0
 72
1
  3

 73
1
 74
1
 75
1
 94
63
  0
MLINESTYLE
  5
22
102
{ACAD_REACTORS
330
10
102
}
330
10
100
AcDbMlineStyle
  2
Standard
 70
0
  3

 62
256
 51
90.0
 52
90.0
 71
2
 49
0.5
 62
256
  6
BYLAYER
 49
-0.5
 62
256
  6
BYLAYER
  0
MLEADERSTYLE
  5
2C
102
{ACAD_REACTORS
330
F
102
}
330
F
100
AcDbMLeaderStyle
179
2
170
2
171
1
172
0
 90
2
 40
0.0
 41
0.0
173
1
 91
-1056964608
 92
-2
290
1
 42
2.0
291
1
 43
8.0
  3
Standard
 44
4.0
300

342
29
174
1
175
1
176
0
178
1
 93
-1056964608
 45
4.0
292
0
297
0
 46
4.0
 94
-1056964608
 47
1.0
 49
1.0
140
1.0
294
1
141
0.0
177
0
142
1.0
295
0
296
0
143
3.75
271
0
272
9
273
9
  0
DICTIONARY
  5
2D
330
A
100
AcDbDictionary
280
1
281
1
  3
CREATED_BY_EZDXF
350
2E
  3
WRITTEN_BY_EZDXF
350
2BE
  0
DICTIONARYVAR
  5
2E
330
2D
100
DictionaryVariables
280
0
  1
1.4.4 @ 2026-06-10T01:17:49.923035+00:00
  0
VISUALSTYLE
  5
5A
102
{ACAD_REACTORS
330
16
102
}
330
16
100
AcDbVisualStyle
  2
2dWireframe
 70
4
 90
0
 40
0.6
 62
7
290
0
291
0
  0
VISUALSTYLE
  5
5B
102
{ACAD_REACTORS
330
16
102
}
330
16
100
AcDbVisualStyle
  2
Basic
 70
7
 90
1
 40
0.6
 62
7
290
0
291
1
  0
VISUALSTYLE
  5
5C
102
{ACAD_REACTORS
330
16
102
}
330
16
100
AcDbVisualStyle
  2
Brighten
 70
12
 90
2
 40
0.6
 62
7
290
0
291
1
  0
VISUALSTYLE
  5
5D
102
{ACAD_REACTORS
330
16
102
}
330
16
100
AcDbVisualStyle
  2
ColorChange
 70
16
 90
2
 40
0.6
 62
8
290
0
291
1
  0
VISUALSTYLE
  5
5E
102
{ACAD_REACTORS
330
16
102
}
330
16
100
AcDbVisualStyle
  2
Conceptual
 70
9
 90
3
 40
0.6
 62
7
290
0
291
0
  0
VISUALSTYLE
  5
5F
102
{ACAD_REACTORS
330
16
102
}
330
16
100
AcDbVisualStyle
  2
Dim
 70
11
 90
2
 40
0.6
 62
7
290
0
291
1
  0
VISUALSTYLE
  5
60
102
{ACAD_REACTORS
330
16
102
}
330
16
100
AcDbVisualStyle
  2
EdgeColorOff
 70
22
 90
2
 40
0.6
 62
7
290
0
291
1
  0
VISUALSTYLE
  5
61
102
{ACAD_REACTORS
330
16
102
}
330
16
100
AcDbVisualStyle
  2
Facepattern
 70
15
 90
2
 40
0.6
 62
7
290
0
291
1
  0
VISUALSTYLE
  5
62
102
{ACAD_REACTORS
330
16
102
}
330
16
100
AcDbVisualStyle
  2
Flat
 70
0
 90
2
 40
0.6
 62
7
290
0
291
1
  0
VISUALSTYLE
  5
63
102
{ACAD_REACTORS
330
16
102
}
330
16
100
AcDbVisualStyle
  2
FlatWithEdges
 70
1
 90
2
 40
0.6
 62
7
290
0
291
1
  0
VISUALSTYLE
  5
64
102
{ACAD_REACTORS
330
16
102
}
330
16
100
AcDbVisualStyle
  2
Gouraud
 70
2
 90
2
 40
0.6
 62
7
290
0
291
1
  0
VISUALSTYLE
  5
65
102
{ACAD_REACTORS
330
16
102
}
330
16
100
AcDbVisualStyle
  2
GouraudWithEdges
 70
3
 90
2
 40
0.6
 62
7
290
0
291
1
  0
VISUALSTYLE
  5
66
102
{ACAD_REACTORS
330
16
102
}
330
16
100
AcDbVisualStyle
  2
Hidden
 70
6
 90
1
 40
0.6
 62
7
290
0
291
0
  0
VISUALSTYLE
  5
67
102
{ACAD_REACTORS
330
16
102
}
330
16
100
AcDbVisualStyle
  2
JitterOff
 70
20
 90
2
 40
0.6
 62
7
290
0
291
1
  0
VISUALSTYLE
  5
68
102
{ACAD_REACTORS
330
16
102
}
330
16
100
AcDbVisualStyle
  2
Linepattern
 70
14
 90
2
 40
0.6
 62
7
290
0
291
1
  0
VISUALSTYLE
  5
69
102
{ACAD_REACTORS
330
16
102
}
330
16
100
AcDbVisualStyle
  2
Modeling
 70
10
 90
2
 40
0.6
 62
7
290
0
291
0
  0
VISUALSTYLE
  5
6A
102
{ACAD_REACTORS
330
16
102
}
330
16
100
AcDbVisualStyle
  2
OverhangOff
 70
21
 90
2
 40
0.6
 62
7
290
0
291
1
  0
VISUALSTYLE
  5
6B
102
{ACAD_REACTORS
330
16
102
}
330
16
100
AcDbVisualStyle
  2
Realistic
 70
8
 90
2
 40
0.6
 62
7
290
0
291
0
  0
VISUALSTYLE
  5
6C
102
{ACAD_REACTORS
330
16
102
}
330
16
100
AcDbVisualStyle
  2
Shaded
 70
27
 90
2
 40
0.6
 62
7
290
0
291
0
  0
VISUALSTYLE
  5
6D
102
{ACAD_REACTORS
330
16
102
}
330
16
100
AcDbVisualStyle
  2
Shaded with edges
 70
26
 90
2
 40
0.6
 62
7
290
0
291
0
  0
VISUALSTYLE
  5
6E
102
{ACAD_REACTORS
330
16
102
}
330
16
100
AcDbVisualStyle
  2
Shades of Gray
 70
23
 90
2
 40
0.6
 62
7
290
0
291
0
  0
VISUALSTYLE
  5
6F
102
{ACAD_REACTORS
330
16
102
}
330
16
100
AcDbVisualStyle
  2
Sketchy
 70
24
 90
1
 40
0.6
 62
7
290
0
291
0
  0
VISUALSTYLE
  5
70
102
{ACAD_REACTORS
330
16
102
}
330
16
100
AcDbVisualStyle
  2
Thicken
 70
13
 90
2
 40
0.6
 62
7
290
0
291
1
  0
VISUALSTYLE
  5
71
102
{ACAD_REACTORS
330
16
102
}
330
16
100
AcDbVisualStyle
  2
Wireframe
 70
5
 90
0
 40
0.6
 62
7
290
0
291
0
  0
VISUALSTYLE
  5
72
102
{ACAD_REACTORS
330
16
102
}
330
16
100
AcDbVisualStyle
  2
X-Ray
 70
25
 90
2
 40
0.5
 62
7
290
0
291
0
  0
RASTERVARIABLES
  5
12E
102
{ACAD_REACTORS
330
A
102
}
330
A
100
AcDbRasterVariables
 90
0
 70
0
 71
1
 72
3
  0
DICTIONARY
  5
12F
330
A
100
AcDbDictionary
281
1
  3
fond_rdc.png
350
130
  0
IMAGEDEF
  5
130
102
{ACAD_REACTORS
330
12F
330
132
102
}
330
12F
100
AcDbRasterImageDef
 90
0
  1
fond_rdc.png
 10
3573.0
 20
2526.0
 11
0.01
 21
0.01
280
1
281
0
  0
IMAGEDEF_REACTOR
  5
132
330
131
100
AcDbRasterImageDefReactor
 90
2
330
131
  0
DICTIONARYVAR
  5
2BE
330
2D
100
DictionaryVariables
280
0
  1
1.4.4 @ 2026-06-10T01:17:51.062435+00:00
  0
ENDSEC
  0
EOF
